SplineFontDB: 3.0
FontName: Besley-it-Medium
FullName: Besley* Medium
FamilyName: Besley* Medium
Weight: Medium
Copyright: Copyright (c) 2017, Owen Earl,,, (EwonRael@yahoo.com)
Version: 001.000
ItalicAngle: 0
UnderlinePosition: -100
UnderlineWidth: 50
Ascent: 800
Descent: 200
InvalidEm: 0
LayerCount: 2
Layer: 0 0 "Back" 1
Layer: 1 0 "Fore" 0
XUID: [1021 31 -699969567 16487490]
FSType: 0
OS2Version: 0
OS2_WeightWidthSlopeOnly: 0
OS2_UseTypoMetrics: 1
CreationTime: 1460762150
ModificationTime: 1495855668
PfmFamily: 17
TTFWeight: 500
TTFWidth: 5
LineGap: 90
VLineGap: 0
OS2TypoAscent: 800
OS2TypoAOffset: 0
OS2TypoDescent: -200
OS2TypoDOffset: 0
OS2TypoLinegap: 90
OS2WinAscent: 1310
OS2WinAOffset: 0
OS2WinDescent: 830
OS2WinDOffset: 0
HheadAscent: 1310
HheadAOffset: 0
HheadDescent: -830
HheadDOffset: 0
OS2CapHeight: 750
OS2XHeight: 520
OS2FamilyClass: 1024
OS2Vendor: 'PfEd'
OS2UnicodeRanges: 00000001.00000000.00000000.00000000
Lookup: 5 0 0 "'calt' Contextual Alternates lookup 1" { "'calt' Contextual Alternates lookup 1-1"  } ['calt' ('DFLT' <'dflt' > 'grek' <'dflt' > 'latn' <'dflt' > ) ]
Lookup: 1 0 0 "'ss01' Style Set 1 lookup 2" { "'ss01' Style Set 1 lookup 2-1"  } ['ss01' ('DFLT' <'dflt' > 'grek' <'dflt' > 'latn' <'dflt' > ) ]
Lookup: 4 0 1 "'liga' Standard Ligatures lookup 0" { "Not your mama's contextual ligatures"  } ['liga' ('DFLT' <'dflt' > 'grek' <'dflt' > 'latn' <'dflt' > ) ]
Lookup: 258 0 0 "Kern like there's no tomorrow" { "Get it right" [150,0,5] } ['kern' ('DFLT' <'dflt' > 'grek' <'dflt' > 'latn' <'dflt' > ) ]
MarkAttachClasses: 1
DEI: 91125
KernClass2: 18 15 "Get it right"
 3 A L
 7 D G O Q
 5 F P Y
 3 K X
 1 T
 5 U J C
 3 V W
 3 u z
 9 b c e o p
 5 h n m
 3 k x
 11 r y v w g q
 6 period
 1 a
 27 H M I N l d uniFB02 uniFB04
 1 R
 68 quotedbl quotesingle quoteleft quoteright quotedblleft quotedblright
 3 A J
 7 C G O Q
 1 T
 5 V W Y
 1 X
 11 a m n r z s
 11 d e g o q c
 1 u
 5 v w y
 1 x
 12 period comma
 5 t p j
 37 B D E F H I K M N P R b h k l uniFFFD

StartChar: ampersand
Encoding: 38 38 0
Width: 870
Flags: HMW
LayerCount: 2
Fore
SplineSet
580 460 m 2
 746 460 l 2
 768.885219942 460 785 467.640047686 785 442 c 2
 785 412 l 2
 785 387.656085721 787.221540363 385 762 385 c 2
 732 385 l 2
 703.335011617 385 702.39488661 385.326291197 697.006333189 362.000006242 c 0
 679.549060061 286.429942122 644.623875171 213.363821835 595.937580135 152.000004949 c 0
 577.489955259 128.748766093 588.143081015 122.668457565 603.8 98 c 0
 618.530597895 74.7910193942 626.947701481 75 666 75 c 2
 730 75 l 2
 766.626744834 75 770 77.886726076 770 40 c 2
 770 22 l 2
 770 -9.74760128924 748.397572486 0 720 0 c 0
 666.666666667 -0 613.333333333 0 560 0 c 0
 521.318483719 0 520.87745281 7.81946455834 506.346938776 30 c 0
 486.833601881 59.7867136401 483.180068333 47.2366362044 454.000009781 31.6004213829 c 0
 398.999418969 2.12820316571 337.023430241 -15 270 -15 c 0
 127 -15 1 57 1 200 c 0
 1 327.510996638 90.125136926 381.556587566 189.999996744 421.640883223 c 0
 231.587149918 438.33168756 241.371075 434.480290498 216.791836735 472 c 2
 205 490 l 2
 180 529 159 578 159 613 c 0
 159 703 244 765 380 765 c 0
 507 765 586 715 586 635 c 0
 586 540.396312435 518.409928822 493.183364433 436.515369601 456 c 0
 393.865566784 436.635305004 386.6256986 440.171728894 412.12244898 400 c 2
 517.481632653 234 l 2
 535.285845264 205.94834669 537.201898901 187.871195684 559.065833899 219.999996221 c 0
 583.802070224 256.349610458 603.032690097 296.707274876 615.622021885 337.999995642 c 0
 620.775548805 354.90344625 637.488621725 385 612 385 c 6
 568 385 l 2
 541.994611929 385 545 388.846725848 545 414 c 2
 545 442 l 2
 545 466.634548973 557.599505775 460 580 460 c 2
226.59877751 358 m 0
 181.613886157 325.872450918 151 283.668679801 151 220 c 0
 151 118 211 70 305 70 c 0
 339.162432523 70 371.66731163 76.668761418 401.999992593 88.6137161654 c 0
 453.989678402 109.087160141 450.219010736 115.678145605 422.493877551 158 c 2
 303.265306122 340 l 2
 275.230719031 382.794229517 270.909946918 389.646386759 226.59877751 358 c 0
462 630 m 0
 462 667 434 705 379 705 c 0
 322 705 287 673 287 630 c 0
 287 602.809868119 303.294847621 572.602171864 329.789550562 530 c 0
 337.779605466 517.152386913 347.058979821 502.511575202 356.579415535 487.511531794 c 1
 371.485009668 494.985036292 385.389638876 503.047102872 397.895172406 512 c 0
 436.674444401 539.762656592 462 576.091547611 462 630 c 0
EndSplineSet
EndChar

StartChar: period
Encoding: 46 46 1
Width: 240
Flags: HMW
LayerCount: 2
Fore
SplineSet
40 65 m 4
 40 109 76 145 120 145 c 4
 164 145 200 109 200 65 c 4
 200 21 164 -15 120 -15 c 4
 76 -15 40 21 40 65 c 4
EndSplineSet
EndChar

StartChar: zero
Encoding: 48 48 2
Width: 530
Flags: HMW
LayerCount: 2
Fore
SplineSet
180 280 m 0
 180 128 201 50 265 50 c 0
 339 50 350 128 350 280 c 0
 350 432 339 510 265 510 c 4
 201 510 180 432 180 280 c 0
30 280 m 0
 30 473 122 575 265 575 c 4
 418 575 500 473 500 280 c 0
 500 87 398 -15 265 -15 c 4
 122 -15 30 87 30 280 c 0
EndSplineSet
EndChar

StartChar: one
Encoding: 49 49 3
Width: 530
VWidth: 1155
Flags: HMW
LayerCount: 2
Fore
SplineSet
430 0 m 6
 85 0 l 2
 51.0066306671 0 55 5.13045097815 55 38 c 0
 55 72.2450677518 57.6385175119 70 91 70 c 2
 160 70 l 2
 214.157167909 70 205 83.028432689 205 134 c 2
 205 359 l 2
 205 391.662137827 207.817791958 395 174 395 c 2
 106 395 l 2
 82.1947650267 395 72 388.881043232 72 415 c 2
 72 441 l 2
 72 465.045435467 72.3820922232 464.864531304 96 465.088447851 c 0
 183.169569157 465.914884686 234.210677682 474.123280131 276.596524044 550.999999995 c 0
 284.732498171 565.756506176 285.533040153 590 312 590 c 2
 326 590 l 2
 344.281479997 590 340 582.749348222 340 566 c 2
 340 122 l 2
 340 64.3090263947 347.055138665 70 403 70 c 2
 439 70 l 2
 479.8616174 70 480 69.9996498309 480 29 c 0
 480 -8.95159151848 464.759964848 0 430 0 c 6
EndSplineSet
EndChar

StartChar: two
Encoding: 50 50 4
Width: 530
VWidth: 1155
Flags: HMW
LayerCount: 2
Fore
SplineSet
509.35116449 132 m 4
 502.595676673 6.54081473677 443.671698046 -35 360 -35 c 0
 263 -35 228 25 155 25 c 0
 129.339942226 25 111.905470332 19.1245815144 100 7.37374454309 c 0
 85.430639525 -7.00638282195 91.9649795504 -20 60 -20 c 2
 40 -20 l 2
 14.4546191027 -20 26.403354715 15.6051203227 29.7395489408 34.0000029508 c 0
 50.7711859845 149.962824272 139.171406176 225.428561939 242 269 c 0
 345 313 352 356 352 420 c 0
 352 484 321 523 252 523 c 0
 188 523 140 499 140 477 c 0
 140 459 202 464 202 398 c 0
 202 351 162 320 125 320 c 0
 86 320 41 348 41 406 c 0
 41 508 140 575 262 575 c 0
 403 575 493 520 493 410 c 0
 493 330 421 254 257 205 c 0
 209.866726707 190.860018012 169.080726132 164.932243834 138.000003516 131.795775521 c 0
 80.6816630605 70.6862770142 103.608087156 100.145107182 156 119.438860543 c 0
 169.256735926 124.320762719 183.852799276 127 200 127 c 0
 280 127 300 83 366 83 c 0
 406.908820049 83 436.49791792 96.1070467326 447.869431484 126 c 0
 454.691278202 143.932981744 445.428302226 157 472 157 c 2
 486 157 l 2
 510.436949488 157 510.634407321 155.831676473 509.35116449 132 c 4
EndSplineSet
EndChar

StartChar: three
Encoding: 51 51 5
Width: 530
VWidth: 1155
Flags: HMW
LayerCount: 2
Fore
SplineSet
25 -1 m 0
 25 52 60 85 99 85 c 0
 136 85 166 64 166 17 c 0
 166 -29 124 -31 124 -54 c 0
 124 -81 162 -113 236 -113 c 0
 335 -113 359 -34 359 40 c 0
 359 105.379959681 341.046311187 184.810632347 241 202.428763248 c 0
 211.292159754 207.660306641 197 197.093695955 197 235 c 0
 197 270.838446098 205.213965478 263.277243527 235 267.437225204 c 0
 328.666172098 280.518844355 339 343.939061532 339 401 c 0
 339 485 305 523 236 523 c 0
 192 523 154 495 154 473 c 0
 154 450 196 450 196 404 c 0
 196 357 166 336 129 336 c 0
 90 336 55 364 55 412 c 0
 55 494 124 575 256 575 c 0
 377 575 480 521 480 401 c 0
 480 341.020137962 464.822693133 290.03423555 400.752050805 259.000002055 c 0
 351.947669879 235.360367767 296.128368524 248.281808306 373 220.468194344 c 4
 470.527051617 185.181057691 500 115.537823684 500 40 c 0
 500 -70 407 -165 256 -165 c 0
 94 -165 25 -93 25 -1 c 0
EndSplineSet
EndChar

StartChar: four
Encoding: 52 52 6
Width: 530
VWidth: 1155
Flags: HMW
LayerCount: 2
Fore
SplineSet
515 -109 m 6
 515 -133 l 2
 515 -156.504466799 502.333475461 -150 481 -150 c 2
 244 -150 l 2
 220.081004449 -150 220 -149.999795023 220 -126 c 2
 220 -106 l 2
 220 -83.932690337 216.990315182 -80 240 -80 c 2
 271 -80 l 2
 309.914431687 -80 305 -73.5738992203 305 -36 c 2
 305 31 l 2
 305 61.5498091224 294.499721174 55 266 55 c 2
 76 55 l 2
 38.382723074 55 35 52.0966468476 35 91 c 0
 35 112.557539744 41.9670589333 122.02176743 49.4066204519 136.99999142 c 0
 114.032683367 267.112988469 251.135866228 406.156079287 272.246629641 528.999991955 c 0
 277.50213243 559.581857379 273.853999361 560 309 560 c 2
 379 560 l 2
 413.122021536 560 403.675777846 539.469251601 397.553443384 513 c 0
 367.667384652 383.790853903 222.034684822 281.860938956 142.118436474 173 c 0
 124.364045892 148.815185655 92.9626096365 125 146 125 c 2
 274 125 l 2
 304.356069403 125 305 124.478819176 305 155 c 2
 305 235 l 2
 305 272.156809884 326.854114856 270.321872157 350.664924755 287 c 0
 371.614578641 301.674049613 392.330340147 320.666934973 406.109969404 348 c 0
 411.883241833 359.451776226 409.503321438 370 428 370 c 0
 443.793132349 370 440 363.452926617 440 349 c 2
 440 157 l 2
 440 127.698604132 437.690619139 125 468 125 c 2
 486 125 l 2
 504.424762877 125 510 128.761268892 510 109 c 2
 510 83 l 2
 510 62.0051226204 514.569085629 55 492 55 c 2
 462 55 l 2
 436.003712589 55 440 49.5281004672 440 25 c 2
 440 -38 l 2
 440 -70.243335035 433.417779439 -80 468 -80 c 2
 494 -80 l 2
 518.952183122 -80 515 -85.4742960668 515 -109 c 6
EndSplineSet
EndChar

StartChar: five
Encoding: 53 53 7
Width: 530
VWidth: 1155
Flags: HMW
LayerCount: 2
Fore
SplineSet
35 -11 m 0
 35 37 65 80 114 80 c 0
 161 80 177 44 177 7 c 0
 177 -41 134 -44 134 -62 c 0
 134 -80 172 -108 226 -108 c 0
 325 -108 359 -44 359 60 c 0
 359 194 335 256 246 256 c 0
 207.204858347 256 185.853127813 248.795112799 167 233.918313134 c 0
 152.47726157 222.458576992 143.277263817 197 111 197 c 2
 87 197 l 2
 50.6200122252 197 64.444003238 218.414123609 67.7065217391 247 c 2
 99.777173913 528 l 2
 103.291146166 558.789090212 99.4146559258 565 135 565 c 2
 247 565 l 0
 354.880580362 565 370.418367179 550.618745268 397 580.463948668 c 0
 404.541356404 588.931198114 405.778807916 597 425 597 c 2
 445 597 l 2
 467.348964212 597 464.774094591 594.676401508 462.861111111 575 c 0
 460.540365329 551.129471955 458.688156759 524.615298827 453 504.678915535 c 0
 435.011067945 441.629625639 400.748534902 435 185 435 c 0
 163.67739645 435 154.523683638 439.743957659 152.233766234 419 c 2
 142.298701299 329 l 2
 135.240689401 265.062715752 144.465128586 292.265882246 188 305.021102237 c 4
 210.358571639 311.571908308 236.465379896 315 268 315 c 0
 429 315 500 220 500 80 c 0
 500 -70 377 -160 236 -160 c 0
 114 -160 35 -93 35 -11 c 0
EndSplineSet
EndChar

StartChar: six
Encoding: 54 54 8
Width: 530
VWidth: 1155
Flags: HMW
LayerCount: 2
Fore
SplineSet
165 260 m 0
 165 156 190 40 279 40 c 0
 358 40 365 146 365 230 c 0
 365 344 343 406 274 406 c 0
 201 406 165 340 165 260 c 0
505 230 m 0
 505 110 420 -15 269 -15 c 0
 98 -15 25 110 25 350 c 0
 25 550 123 725 294 725 c 0
 386 725 460 683 460 601 c 0
 460 543 425 525 386 525 c 0
 349 525 319 546 319 593 c 0
 319 639 353 638 353 651 c 0
 353 664 338 673 299 673 c 0
 203.790877247 673 175.542994757 572.154758639 167.879841913 448.000004606 c 0
 163.933438024 384.062247622 175.291320064 424.007478491 204 442.023778918 c 4
 227.369904242 456.689699355 257.529801798 465 296 465 c 0
 407 465 505 380 505 230 c 0
EndSplineSet
EndChar

StartChar: seven
Encoding: 55 55 9
Width: 540
VWidth: 1155
Flags: HMW
LayerCount: 2
Fore
SplineSet
32.8094162453 443.00000036 m 0
 45.7297491854 549.042555994 102.154146591 585 180 585 c 0
 277 585 312 525 385 525 c 0
 412.905314227 525 431.082586929 531.94860109 443 545.845803269 c 0
 453.112463656 557.638207471 449.09817404 570 473 570 c 2
 491 570 l 2
 515.856608691 570 509.87940218 559.907216005 503.533093789 539.000003016 c 0
 480.760536307 463.978324231 391.883460526 338.364720781 333 218 c 0
 287 124 274 90 274 46 c 0
 274 -17 332 -16 332 -82 c 0
 332 -129 298 -160 244 -160 c 0
 196 -160 149 -123 149 -44 c 0
 149 55 204 123 264 231 c 0
 293.820884024 284.677591244 333.805026608 346.340599927 369.726347832 402.999996558 c 0
 381.947614448 422.276837413 397.892246769 432.295639236 368 425.834393711 c 4
 359.257991367 423.944797904 350.101394635 423 340 423 c 0
 260 423 240 467 174 467 c 0
 132.93363586 467 103.27434862 453.791805696 92.0000008457 423.653890385 c 0
 84.2717336715 402.995146636 94.1047729949 393 64 393 c 2
 49 393 l 2
 19.7881243703 393 30.1601151931 421.256082806 32.8094162453 443.00000036 c 0
EndSplineSet
EndChar

StartChar: eight
Encoding: 56 56 10
Width: 530
VWidth: 1155
Flags: HMW
LayerCount: 2
Fore
SplineSet
175 190 m 0
 175 106 186 35 265 35 c 0
 344 35 355 106 355 190 c 0
 355 274 344 343 265 343 c 0
 186 343 175 274 175 190 c 0
55 530 m 0
 55 640 134 725 265 725 c 0
 396 725 475 640 475 530 c 0
 475 465.146387855 434.65625 414.161132812 383.514648438 386 c 4
 352.477539062 368.91015625 340.9140625 373.388671875 380.884765625 352 c 4
 444.338867188 318.044921875 495 268.916509013 495 190 c 0
 495 70 406 -15 265 -15 c 0
 124 -15 35 70 35 190 c 0
 35 270.056418284 84.73828125 323.658203125 152 353.2109375 c 0
 191.876953125 370.731445312 183.8125 363.551757812 144.802734375 387 c 0
 95.4443359375 416.66796875 55 465.872295523 55 530 c 0
195 530 m 0
 195 456 206 390 265 390 c 0
 324 390 335 456 335 530 c 0
 335 604 324 670 265 670 c 0
 206 670 195 604 195 530 c 0
EndSplineSet
EndChar

StartChar: A
Encoding: 65 65 12
Width: 950
Flags: HMW
LayerCount: 2
Fore
SplineSet
430.776699029 542 m 2
 338.330097087 335 l 2
 320.396469698 294.844269107 303.370850064 285 368 285 c 2
 535 285 l 2
 584.230556594 285 561.636381038 304.785723994 550.391585761 335 c 2
 471.1197411 548 l 2
 450.901332232 602.325985568 451.58203833 588.585868435 430.776699029 542 c 2
546.34057971 724 m 2
 787.862318841 118 l 2
 798.562306627 91.1527579186 795.099872647 75 835 75 c 2
 894 75 l 2
 914.69480343 75 925 80.7872842383 925 58 c 2
 925 25 l 2
 925 -1.69505526182 923.013315289 0 897 0 c 6
 568 0 l 2
 539.584428806 0 535 -3.58277266833 535 26 c 2
 535 52 l 2
 535 82.7579035984 548.921880987 75 577 75 c 2
 629 75 l 2
 659.263968513 75 635.478278506 106.108648033 628.851851852 124 c 2
 606.259259259 185 l 2
 598.392456266 206.240368082 599.170965236 210 569 210 c 2
 331 210 l 2
 285.092888371 210 282.0929877 207.992677697 268.088888889 177 c 2
 240.525925926 116 l 2
 231.273871083 95.5241409209 218.341259662 75 246 75 c 2
 298 75 l 2
 321.069518373 75 325 78.037226356 325 54 c 2
 325 22 l 2
 325 -6.08406289605 315.186149878 0 289 0 c 2
 57 0 l 2
 31.9451897372 0 25 -4.8230300301 25 22 c 2
 25 44 l 2
 25 70.4135288319 21.4701643085 75 49 75 c 2
 110 75 l 2
 143.623815477 75 141.770939649 92.1857319152 151.634782609 114 c 2
 432.886956522 736 l 2
 443.224123193 758.861041676 441.987421668 765 477 765 c 2
 507 765 l 2
 539.94184389 765 537.524081626 746.121395194 546.34057971 724 c 2
EndSplineSet
EndChar

StartChar: B
Encoding: 66 66 13
Width: 800
Flags: HMW
LayerCount: 2
Fore
SplineSet
465 0 m 0
 86 0 l 2
 53.6352352323 0 35 -9.78390874511 35 26 c 2
 35 49 l 2
 35 77.6246043645 38.2137094405 75 66 75 c 6
 102 75 l 2
 145.380779971 75 145 75.5351890089 145 119 c 2
 145 655 l 2
 145 677.521190061 141.795625795 675 120 675 c 2
 56 675 l 2
 33.3516482894 675 35 676.957203057 35 699 c 2
 35 723 l 2
 35 757.084633608 46.1568271522 750 78 750 c 2
 445 750 l 0
 596 750 715 695 715 565 c 0
 715 465 651 410 549 389 c 1
 666 372 745 316 745 210 c 0
 745 60 626 0 465 0 c 0
455 75 m 2
 531 75 595 116 595 215 c 0
 595 314 531 350 455 350 c 2
 328 350 l 2
 287.209006652 350 280 355.527106454 280 313 c 2
 280 121 l 2
 280 83.3103165814 273.812207457 75 314 75 c 2
 455 75 l 2
334 425 m 2
 445 425 l 2
 511 425 575 451 575 550 c 0
 575 649 511 675 445 675 c 2
 314 675 l 2
 281.206861045 675 280 676.029421866 280 643 c 2
 280 465 l 2
 280 418.314805374 289.055322358 425 334 425 c 2
EndSplineSet
EndChar

StartChar: C
Encoding: 67 67 14
Width: 795
Flags: HMW
LayerCount: 2
Fore
SplineSet
767.000002141 264.343358134 m 0
 745.078937669 106.645507112 625.828431244 -10 435 -10 c 0
 192 -10 50 152 50 375 c 0
 50 598 207 760 450 760 c 0
 528.679151092 760 588.278500325 736.314728729 632.000001374 700.684682982 c 0
 651.864138704 684.496763885 656.051774089 664.862677178 669.074074074 695 c 2
 685.061728395 732 l 2
 692.496538291 749.206274331 691.068726181 755 717 755 c 0
 746.870580386 755 760 762.792399943 760 730 c 2
 760 523 l 2
 760 499.59866673 763.442223932 495 739 495 c 2
 709 495 l 2
 673.209115333 495 679.86050965 521.258548172 669.000002707 545.698123674 c 0
 634.343620773 623.68594389 557.706717046 682 455 682 c 0
 311 682 205 547 205 375 c 0
 205 203 291 69 445 69 c 0
 591.18986674 69 667.45520983 151.638073405 689.378737797 255.999995969 c 0
 694.551021862 280.621467016 686.514423896 295 718 295 c 2
 750 295 l 6
 773.491210938 295 769.645179299 283.372486665 767.000002141 264.343358134 c 0
EndSplineSet
EndChar

StartChar: D
Encoding: 68 68 15
Width: 855
Flags: HMW
LayerCount: 2
Fore
SplineSet
425 0 m 2
 86 0 l 2
 61.5381482176 0 35 -9.63904311609 35 18 c 6
 35 46 l 2
 35 78.1146823756 38.8497361746 75 70 75 c 2
 124 75 l 2
 157.714569042 75 145 116.139646365 145 146 c 2
 145 656 l 2
 145 680.225357273 136.593044927 675 114 675 c 2
 60 675 l 2
 36.1875907626 675 35 673.981187174 35 698 c 2
 35 726 l 2
 35 755.890778422 44.0121961307 750 72 750 c 2
 425 750 l 2
 668 750 805 588 805 375 c 0
 805 162 658 0 425 0 c 2
316 75 m 2
 425 75 l 2
 599 75 650 193 650 375 c 0
 650 557 589 675 425 675 c 2
 307 675 l 2
 286.272141763 675 280 679.231427503 280 657 c 2
 280 116 l 2
 280 78.382723074 277.096646848 75 316 75 c 2
EndSplineSet
EndChar

StartChar: E
Encoding: 69 69 16
Width: 735
Flags: HMW
LayerCount: 2
Fore
SplineSet
112 675 m 2
 54 675 l 2
 30.0998025327 675 35 682.658040615 35 705 c 2
 35 725 l 2
 35 748.812409237 33.9811871738 750 58 750 c 2
 668 750 l 2
 688.899431268 750 700 756.052676002 700 733 c 6
 700 557 l 2
 700 531.799773065 708.202941486 515 680 515 c 2
 650 515 l 2
 622.841982066 515 630.48701568 528.498598607 628.731494786 551.00000115 c 0
 621.713865537 640.948517971 584.116519866 675 480 675 c 2
 330 675 l 2
 296.138997823 675 280 684.243528186 280 647 c 2
 280 446 l 2
 280 418.09450519 280.00023914 418 308 418 c 2
 345 418 l 2
 412.448792991 418 446.13625258 454.83054553 453.455759246 508.999997143 c 0
 455.965223981 527.571785482 450.806615107 533 473 533 c 2
 502 533 l 2
 518.630983128 533 520 534.187175756 520 517 c 2
 520 265 l 2
 520 240.656085721 522.221540363 238 497 238 c 2
 479 238 l 2
 453.537753832 238 456.462720752 239.342113649 453.483733708 261.999997581 c 0
 446.222428329 317.228775697 412.535118592 358 345 358 c 2
 303 358 l 2
 278.327712095 358 280 356.028647855 280 332 c 2
 280 114 l 2
 280 74.6062735949 280.535717919 75 320 75 c 2
 470 75 l 2
 600.096847045 75 636.410342843 113.775808688 639.739560912 235 c 0
 640.259956631 253.948758778 639.214350259 255 659 255 c 2
 690 255 l 2
 712.087197468 255 710 252.431669461 710 231 c 2
 710 35 l 2
 710 10.9693367033 716.403898499 0 690 0 c 2
 76 0 l 2
 49.8957638595 0 35 -7.85406049768 35 21 c 2
 35 52 l 2
 35 75.9456897115 36.0992771215 75 60 75 c 2
 114 75 l 2
 151.637831346 75 145 84.6205846934 145 120 c 2
 145 651 l 2
 145 679.462963039 138.842548082 675 112 675 c 2
EndSplineSet
EndChar

StartChar: F
Encoding: 70 70 17
Width: 725
Flags: HMW
LayerCount: 2
Fore
SplineSet
120 675 m 2
 59 675 l 2
 37.0239530994 675 35 673.267964354 35 696 c 2
 35 732 l 2
 35 753.807900403 40.4943581159 750 61 750 c 2
 662 750 l 2
 683.740983191 750 690 754.293237401 690 731 c 2
 690 544 l 2
 690 521.248858998 694.352348736 515 670 515 c 2
 637 515 l 2
 613.619723596 515 620.329037481 527.446480225 619.021059456 547.000001157 c 0
 612.80404435 639.940809548 575.645882616 675 470 675 c 2
 313 675 l 2
 288.419715404 675 280 680.440682379 280 654 c 2
 280 437 l 2
 280 418.408933423 274.462278982 408 295 408 c 2
 335 408 l 2
 401.399090093 408 442.515580824 436.257022816 452.578397199 486.999993454 c 0
 456.236748239 505.447671763 449.72163813 513 473 513 c 2
 506 513 l 2
 519.403408191 513 520 513.511565991 520 500 c 2
 520 255 l 2
 520 236.814329084 525.010649602 228 505 228 c 6
 472 228 l 2
 450.405262332 228 456.07998892 234.360908938 453.000001272 251.974055444 c 0
 443.712956082 305.082738412 402.370279134 338 335 338 c 2
 302 338 l 2
 280.074254078 338 280 337.999812104 280 316 c 2
 280 111 l 2
 280 79.5882190384 276.344070094 75 309 75 c 2
 357 75 l 2
 371.83399836 75 380 79.3790822472 380 63 c 2
 380 28 l 2
 380 6.25901680904 384.293237401 0 361 0 c 2
 59 0 l 2
 34.5593273893 0 35 0.539348568238 35 25 c 2
 35 57 l 2
 35 76.6094878013 36.9390089362 75 56 75 c 2
 126 75 l 2
 146.622912317 75 145 76.9445896069 145 97 c 2
 145 660 l 2
 145 679.292056847 137.963874753 675 120 675 c 2
EndSplineSet
EndChar

StartChar: G
Encoding: 71 71 18
Width: 895
Flags: HMW
LayerCount: 2
Fore
SplineSet
535 370 m 6
 851 370 l 2
 872.249289651 370 880 374.895413048 880 352 c 2
 880 326 l 2
 880 302.037585132 876.147137846 305 853 305 c 2
 809 305 l 2
 782.671953164 305 780 307.257783734 780 280 c 2
 780 242 l 2
 780 221.460316404 779.696508555 206.374868847 775.000003906 190.42465614 c 0
 748.49700904 100.415503142 629.80839386 -10 435 -10 c 0
 207 -10 50 152 50 375 c 0
 50 598 227 760 450 760 c 0
 527.576114877 760 592.871740825 738.509144375 642.999991118 704.188093306 c 0
 676.687477225 681.123455616 677.827665129 662.822092289 693.155844156 712 c 0
 701.154676827 737.662921488 697.067763073 750 733 750 c 0
 755.716868142 750 770 757.187875432 770 732 c 2
 770 540 l 2
 770 515.236409323 778.835749877 495 751 495 c 2
 721 495 l 2
 692.152025381 495 695.776285153 498.31997429 691 521.897784023 c 0
 672.780959587 611.834849038 606.364704484 684 457 684 c 0
 303 684 205 557 205 375 c 0
 205 193 281 65 440 65 c 0
 523.179034596 65 585.248711825 102.101294766 616.999996897 148.676779926 c 0
 630.973348451 169.174080318 635 181.985904324 635 216 c 2
 635 274 l 2
 635 307.696009125 631.762846324 305 599 305 c 2
 541 305 l 2
 510.104630746 305 510 305.000264762 510 336 c 0
 510 363.76800765 505.383321726 370 535 370 c 6
EndSplineSet
EndChar

StartChar: H
Encoding: 72 72 19
Width: 920
Flags: HMW
LayerCount: 2
Fore
SplineSet
280 645 m 2
 280 451 l 2
 280 427.648866745 277.797269579 425 302 425 c 2
 596 425 l 2
 637.633382542 425 640 422.973460225 640 465 c 2
 640 657 l 2
 640 680.830944321 629.789022908 675 608 675 c 2
 538 675 l 2
 516.192099597 675 520 680.494358116 520 701 c 2
 520 727 l 2
 520 749.380247314 519.481518794 750 542 750 c 2
 852 750 l 2
 888.1765107 750 885 746.136447005 885 711 c 0
 885 676.778988255 886.525686746 675 852 675 c 2
 814 675 l 2
 776.783999402 675 775 676.530550537 775 639 c 2
 775 103 l 2
 775 74.5714692983 775.53799156 75 804 75 c 2
 858 75 l 2
 878.727858237 75 885 79.2314275032 885 57 c 2
 885 25 l 2
 885 2.64220848385 887.183384066 0 864 0 c 2
 540 0 l 2
 517.478809939 0 520 3.20437420549 520 25 c 2
 520 45 l 2
 520 77.2218995035 522.623589598 75 554 75 c 2
 616 75 l 2
 646.224447203 75 640 84.7515912633 640 113 c 2
 640 329 l 2
 640 350.449449377 639.459291688 350 618 350 c 2
 330 350 l 2
 290.402198532 350 280 357.348443587 280 315 c 2
 280 105 l 2
 280 67.7212406691 291.081842502 75 326 75 c 2
 366 75 l 2
 388.152315552 75 400 81.4393971725 400 57 c 2
 400 39 l 2
 400 7.61829937635 405.51418634 0 372 0 c 2
 62 0 l 2
 37.6560857212 0 35 -2.22154036317 35 23 c 2
 35 49 l 2
 35 70.1532010965 31.4310662716 75 54 75 c 2
 106 75 l 2
 137.381700624 75 145 69.4858136605 145 103 c 2
 145 647 l 2
 145 682.479916747 133.12531112 675 100 675 c 2
 60 675 l 2
 24.514196383 675 35 697.186680836 35 729 c 0
 35 757.782912519 49.8342460822 750 76 750 c 6
 364 750 l 2
 403.668277788 750 400 745.502204253 400 707 c 0
 400 676.202016793 401.027595351 675 370 675 c 2
 310 675 l 2
 280.101255561 675 280 674.999743779 280 645 c 2
EndSplineSet
EndChar

StartChar: I
Encoding: 73 73 20
Width: 435
Flags: HMW
LayerCount: 2
Fore
SplineSet
280 647 m 2
 280 105 l 0
 280 75 l 1
 310 75 l 0
 378 75 l 2
 398.816691271 75 400 76.0132698875 400 55 c 2
 400 19 l 2
 400 -4.21744930304 393.803610618 0 372 0 c 2
 60 0 l 2
 38.9363637335 0 35 -2.98082875194 35 19 c 2
 35 51 l 2
 35 72.9760469006 33.2679643544 75 56 75 c 2
 122 75 l 2
 142.985206145 75 145 73.2848942921 145 95 c 2
 145 651 l 2
 145 678.444739655 140.502720357 675 114 675 c 2
 58 675 l 2
 27.8012348881 675 35 687.354207244 35 715 c 0
 35 754.937358113 41.4214369236 750 80 750 c 2
 372 750 l 2
 393.740983191 750 400 751.293237401 400 731 c 6
 400 711 l 2
 400 677.738033743 402.374351513 675 368 675 c 6
 310 675 l 2
 281.197437816 675 280 676.02551716 280 647 c 2
EndSplineSet
EndChar

StartChar: J
Encoding: 74 74 21
Width: 626
Flags: HMW
LayerCount: 2
Fore
SplineSet
135 110 m 0
 135 93 149 65 221 65 c 0
 312 65 346 110 346 240 c 2
 346 640 l 2
 346 674.881868512 345.999701075 675 311 675 c 2
 249 675 l 2
 227.184556955 675 226 673.984716006 226 696 c 2
 226 730 l 2
 226 756.321887249 236.911788971 750 261 750 c 2
 575 750 l 2
 593.943130961 750 601 754.422505461 601 734 c 2
 601 704 l 2
 601 682.750710349 605.895413048 675 583 675 c 2
 525 675 l 2
 496.584475694 675 481 678.372070312 481 647 c 6
 481 270 l 2
 481 100 382 -10 221 -10 c 0
 64 -10 5 75 5 165 c 0
 5 237 54 280 104 280 c 0
 151 280 188 254 188 201 c 0
 188 131 135 138 135 110 c 0
EndSplineSet
EndChar

StartChar: K
Encoding: 75 75 22
Width: 880
Flags: HMW
LayerCount: 2
Fore
SplineSet
860 0 m 2
 562 0 l 2
 520.948483566 0 530 14.7568214867 530 53 c 0
 530 78.9962874115 535.471899533 75 560 75 c 2
 584 75 l 2
 644.550379304 75 620.436387793 87.0687185981 599.198019802 117 c 2
 433.158415842 351 l 2
 409.567835155 384.246260224 406.90192398 371.219748279 380 345.52238806 c 2
 308 276.746268657 l 2
 289.355913072 258.936991591 280 255.600731552 280 217 c 2
 280 103 l 2
 280 75.0945051903 280.00023914 75 308 75 c 2
 380 75 l 2
 406.602620184 75 400 63.3056070763 400 39 c 0
 400 4.59835426629 403.723229552 0 368 0 c 2
 70 0 l 2
 31.794864672 0 35 3.8728682545 35 41 c 0
 35 74.3466536226 34.4781461336 75 68 75 c 2
 116 75 l 2
 153.951591518 75 145 90.240035152 145 125 c 2
 145 649 l 2
 145 672.956637891 146.764823381 675 122 675 c 2
 50 675 l 2
 27.9757484108 675 35 691.348876878 35 711 c 2
 35 739 l 2
 35 756.129205839 52.8203242446 750 68 750 c 2
 368 750 l 2
 390.545578443 750 400 755.72588076 400 731 c 2
 400 701 l 2
 400 680.552658684 403.881548155 675 382 675 c 2
 310 675 l 2
 286.969046404 675 280 679.701586115 280 655 c 2
 280 383 l 2
 280 321.073741819 297.154793615 358.752335113 320 381.061583578 c 2
 586 640.82111437 l 2
 602.942122317 657.365767541 640.197358135 675 590 675 c 2
 540 675 l 2
 518.372487016 675 525 689.652298799 525 709 c 2
 525 723 l 2
 525 750.937774849 526.09346377 750 554 750 c 2
 796 750 l 2
 829.787201443 750 825 743.536434979 825 711 c 0
 825 673.584184954 823.353530423 675 786 675 c 2
 764 675 l 2
 720.223048001 675 715.087725071 665.568055574 694 645.502202643 c 2
 526 485.643171806 l 2
 502.391243426 463.178451894 495.572432069 462.236757241 516 435 c 2
 760.5 109 l 2
 776.208298138 88.0556024826 777.352865189 75 816 75 c 2
 866 75 l 2
 896.224447203 75 890 65.2484087367 890 37 c 0
 890 4.59097796192 893.678938695 0 860 0 c 2
EndSplineSet
EndChar

StartChar: L
Encoding: 76 76 23
Width: 740
Flags: HMW
LayerCount: 2
Fore
SplineSet
118 675 m 2
 74 675 l 2
 45.5853035588 675 35 668.366241809 35 699 c 2
 35 735 l 2
 35 759.642975856 71.9111677644 750 94 750 c 2
 386 750 l 2
 414.462963039 750 410 743.842548082 410 717 c 2
 410 693 l 2
 410 670.49778577 403.056800351 675 382 675 c 2
 314 675 l 2
 285.245775411 675 280 678.993908871 280 649 c 2
 280 139 l 2
 280 88.8903794744 270.35393994 75 324 75 c 2
 465 75 l 2
 569.749744291 75 623.199863229 109.466935784 633.244300326 215 c 0
 636.110087282 245.109728997 628.239816371 255 664 255 c 2
 688 255 l 2
 709.101953185 255 705 248.769100047 705 229 c 2
 705 73 l 2
 705 47.3491422819 716.388937273 0 688 0 c 2
 68 0 l 2
 46.9044434972 0 35 -6.30993150087 35 17 c 2
 35 39 l 2
 35 71.6621378271 32.1822080418 75 66 75 c 6
 110 75 l 2
 137.358382252 75 145 69.7063775383 145 99 c 2
 145 649 l 2
 145 675.434652664 144.461382719 675 118 675 c 2
EndSplineSet
EndChar

StartChar: M
Encoding: 77 77 24
Width: 1045
Flags: HMW
LayerCount: 2
Fore
SplineSet
146 675 m 2
 82 675 l 2
 57.8823262001 675 60 677.575701997 60 701 c 2
 60 725 l 2
 60 755.951910744 68.991188855 750 98 750 c 2
 294 750 l 2
 342.055292141 750 344.411285841 748.75287519 356.20212766 713 c 2
 508.234042553 252 l 2
 511.030288876 243.521059538 513.811864187 235.050749124 516 225.835067974 c 0
 530.983111698 162.731315804 531.770683055 171.596158845 543.543726023 225.999996766 c 0
 545.975636784 237.237981644 549.241999251 249.464839635 552.436170213 260 c 2
 686.143617021 701 l 2
 697.128516786 737.23089747 692.263976057 750 742 750 c 2
 956 750 l 2
 989.787201443 750 985 743.536434979 985 711 c 0
 985 675.659690462 985.522237233 675 950 675 c 2
 908 675 l 2
 878.491365052 675 877.978326058 675.541848552 879.12 647 c 2
 900.88 103 l 2
 902.200993352 69.975166197 909.486285275 75 942 75 c 2
 1000 75 l 2
 1020.73923541 75 1015 63.8236548187 1015 45 c 2
 1015 25 l 2
 1015 1.18759076259 1016.01881283 0 992 0 c 2
 678 0 l 2
 657.781722355 0 650 -4.81751818764 650 17 c 2
 650 49 l 2
 650 75.93990712 651.094752983 75 678 75 c 2
 736 75 l 2
 778.277339803 75 767.413166314 91.8019750223 766.113970588 129 c 2
 752.492647059 519 l 2
 751.453551717 548.750940318 752.690863042 577.762584134 754.955078125 607 c 0
 756.713867188 629.7109375 745.802734375 654.024414062 738.802734375 605 c 0
 734.864921817 577.421578092 728.247966746 551.716345791 720.624801272 527 c 2
 564.561208267 21 l 2
 558.43060794 1.12295048462 561.773967275 -10 534 -10 c 2
 508 -10 l 2
 460.113887565 -10 465.12909112 7.31918119522 453.711864407 41 c 2
 279.474576271 555 l 2
 272.377554028 575.936215616 265.619055016 596.595191199 259.548171276 619 c 0
 246.421615612 667.444012836 244.77128833 645.513212628 247.966441792 613 c 0
 250.076415965 591.529344606 248.201883005 570.385304983 247.329787234 549 c 2
 229.712765957 117 l 2
 228.431260285 85.5752521977 220.657575662 75 256 75 c 2
 316 75 l 2
 342.925399612 75 345 76.8118988803 345 49 c 2
 345 33 l 2
 345 6.9370275431 349.880317839 0 322 0 c 2
 68 0 l 2
 42.4976511958 0 30 -7.06939208302 30 21 c 2
 30 57 l 2
 30 73.6309831283 28.8128242435 75 46 75 c 2
 128 75 l 2
 150.787245238 75 144.669438485 89.3451103907 145.586666667 109 c 2
 170.413333333 641 l 2
 171.705528777 668.689902373 177.054828669 675 146 675 c 2
EndSplineSet
EndChar

StartChar: N
Encoding: 78 78 25
Width: 885
Flags: HMW
LayerCount: 2
Fore
SplineSet
116 675 m 2
 74 675 l 2
 44.0597603246 675 35 668.887938051 35 701 c 2
 35 729 l 2
 35 753.952183122 40.4742960668 750 64 750 c 2
 252 750 l 2
 284.415369014 750 290.743695063 748.99696512 304.087452471 731 c 6
 610.30418251 318 l 2
 623.783349446 299.820405619 636.655298257 282.618321093 648.022813688 262 c 0
 679.696287814 204.550871069 680 196.549499548 680 286 c 2
 680 633 l 2
 680 652.309425845 687.820759489 675 666 675 c 2
 604 675 l 2
 575.245775411 675 570 671.006091129 570 701 c 2
 570 731 l 2
 570 759.700715117 594.499906858 750 620 750 c 2
 832 750 l 2
 865.405625385 750 870 753.701355743 870 719 c 0
 870 691.456276199 878.488778602 675 848 675 c 2
 790 675 l 2
 756.472954195 675 765 659.592020663 765 629 c 2
 765 45 l 2
 765 19.0349324672 769.33998358 -10 746 -10 c 6
 716 -10 l 2
 678.802307748 -10 676.197143739 8.55222615696 660.984 29 c 2
 288.24 530 l 2
 273.094020984 550.357498677 259.819713315 570.538672348 247.146739726 594 c 0
 213.362325974 656.544689692 225 605.995277409 225 542 c 2
 225 125 l 2
 225 86.8630333363 217.071404284 75 258 75 c 2
 308 75 l 2
 333.054810263 75 340 79.8230300301 340 53 c 2
 340 25 l 2
 340 -7.39382011589 327.711424361 0 298 0 c 2
 62 0 l 2
 35.091130005 0 35 0.000230599137357 35 27 c 2
 35 57 l 2
 35 79.8316882496 42.6872844005 75 64 75 c 2
 106 75 l 2
 139.885243697 75 140 75.0002903841 140 109 c 2
 140 647 l 2
 140 672.336200212 142.239874258 675 116 675 c 2
EndSplineSet
EndChar

StartChar: O
Encoding: 79 79 26
Width: 860
Flags: HMW
LayerCount: 2
Fore
SplineSet
50 375 m 0
 50 588 187 760 430 760 c 0
 673 760 810 588 810 375 c 0
 810 162 663 -10 430 -10 c 0
 187 -10 50 162 50 375 c 0
205 375 m 0
 205 193 276 60 430 60 c 0
 594 60 655 193 655 375 c 0
 655 557 584 690 430 690 c 0
 276 690 205 557 205 375 c 0
EndSplineSet
EndChar

StartChar: P
Encoding: 80 80 27
Width: 725
Flags: HMW
LayerCount: 2
Fore
SplineSet
110 675 m 2
 58 675 l 2
 35.0776292635 675 35 675.000196436 35 698 c 2
 35 734 l 2
 35 758.776510355 60.0380046989 750 82 750 c 6
 410 750 l 2
 601 750 690 675 690 545 c 0
 690 415 601 320 410 320 c 2
 326 320 l 2
 300.141917592 320 280 329.034043972 280 300 c 2
 280 112 l 2
 280 78.3462948928 277.164569452 75 312 75 c 2
 364 75 l 2
 384.805819581 75 410 83.5115415223 410 60 c 2
 410 28 l 2
 410 -0.935557686369 408.90773507 0 380 0 c 2
 68 0 l 2
 36.7749630934 0 35 -1.51990483127 35 30 c 2
 35 50 l 2
 35 77.1594733636 37.5908585824 75 64 75 c 2
 126 75 l 2
 153.781172665 75 145 95.1971257498 145 120 c 2
 145 636 l 2
 145 672.230271137 147.420971938 675 110 675 c 2
326 395 m 2
 410 395 l 2
 496 395 540 456 540 545 c 0
 540 634 496 675 410 675 c 2
 312 675 l 2
 277.290773265 675 280 671.757051739 280 638 c 2
 280 436 l 2
 280 392.182362282 283.305894587 395 326 395 c 2
EndSplineSet
EndChar

StartChar: Q
Encoding: 81 81 28
Width: 870
Flags: HMW
LayerCount: 2
Fore
SplineSet
50 375 m 0
 50 588 187 760 430 760 c 0
 673 760 810 588 810 375 c 0
 810 243.804577381 754.385609212 127.550334377 656.769427455 58.0000038993 c 0
 635.39937446 42.7741036296 622.519433639 43.0762221978 640 18.9280374188 c 0
 656.166373948 -3.40468208459 673.347248981 -17 693 -17 c 0
 729.430466872 -17 752.608777403 4.10528602388 766.661275546 35.9999981883 c 0
 778.953330226 63.8990622491 768.79514729 82 812 82 c 0
 854.682150057 82 851.130690306 76.3558271538 843.7066471 40.0000032394 c 4
 823.653889589 -58.1991182973 767.38548452 -145 685 -145 c 0
 609.975893995 -145 575.803990646 -86.1728281767 548.511904602 -18.0000023202 c 0
 538.80102012 6.25678903333 537.079067801 2.29208576043 510.000006567 -2.7384763927 c 0
 484.591419692 -7.45870928349 457.80396799 -10 430 -10 c 0
 187 -10 50 162 50 375 c 0
606.449723323 153.999995092 m 0
 639.948377705 209.622312522 655 286.495756738 655 375 c 0
 655 557 584 690 430 690 c 0
 276 690 205 557 205 375 c 0
 205 314.929587003 212.710372901 260.197124477 228.5878892 214.000005902 c 0
 246.135714046 162.942968401 240.90950959 183.07472742 255.370806774 225.999998405 c 0
 272.414300761 276.589968908 310.448646852 323 377 323 c 0
 463.494324849 323 516.096069878 248.989672641 558.390821463 170.000002431 c 0
 578.384317608 132.660152741 580.340544466 110.647416874 606.449723323 153.999995092 c 0
490 120.037315393 m 0
 465.471353821 160.825208719 432.419330471 190 379 190 c 0
 343.106403463 190 317.205756468 174.825521067 304.000001756 153.708200904 c 0
 286.209258223 125.25902588 294.703370393 105.731177466 315.999994614 91.6405993172 c 0
 347.086777755 71.0725157221 385.612428833 60 430 60 c 0
 449.234571123 60 467.314193049 61.9249153293 483.99999532 65.5358755311 c 0
 524.674758255 74.3382661977 505.987560779 93.4521170567 490 120.037315393 c 0
EndSplineSet
EndChar

StartChar: R
Encoding: 82 82 29
Width: 805
Flags: HMW
LayerCount: 2
Fore
SplineSet
818.918945312 58 m 0
 791.096679688 21.546875 743.505825579 -10 690 -10 c 0
 427 -10 656 335 400 335 c 2
 320 335 l 2
 302.510829491 334.125541475 280 340.536630652 280 320 c 2
 280 100 l 2
 280 70.4934082821 286.155562191 75 314 75 c 2
 362 75 l 2
 382.218277645 75 390 79.8175181876 390 58 c 2
 390 30 l 2
 390 0.101255561082 389.999743779 0 360 0 c 2
 74 0 l 2
 44.0597603246 0 35 -6.11206194905 35 26 c 2
 35 56 l 2
 35 72.3803116197 32.9490659639 75 50 75 c 2
 110 75 l 2
 143.790632088 75 145 73.9697454978 145 108 c 2
 145 640 l 2
 145 679.529206842 135.758827988 673.410718756 100 675 c 2
 64 675 l 2
 37.4137067661 673.166462536 35 670.517582325 35 700 c 2
 35 730 l 2
 35 757.764011398 62.1307714435 749.063951821 86 750 c 2
 450 750 l 2
 651 750 720 665 720 555 c 0
 720 478.361643694 684.748046875 412.4921875 594.495117188 384 c 4
 539.060546875 366.5 567.708984375 369.61328125 601.9921875 346 c 4
 720.76171875 264.194335938 650.765911654 84 724 84 c 0
 737.999999673 84 754.222221465 93.7777773216 769.999998896 107.999999005 c 0
 784.470555441 121.043880754 788.248589169 137.430183807 803.5 120 c 2
 817.5 104 l 2
 834.5687556 84.4928507434 836.068359375 80.4677734375 818.918945312 58 c 0
312 415 m 2
 450 415 l 2
 516 415 580 456 580 555 c 0
 580 654 516 675 450 675 c 2
 330 675 l 2
 290.038936023 673.401557441 280 680.241873539 280 636 c 2
 280 458 l 2
 280 420.149501698 274.59375 412.662109375 312 415 c 2
EndSplineSet
Substitution2: "'ss01' Style Set 1 lookup 2-1" uniFFFD
EndChar

StartChar: S
Encoding: 83 83 30
Width: 670
Flags: HMW
LayerCount: 2
Fore
SplineSet
532.067819931 559.999984571 m 0
 506.494124748 643.879368529 423.31748991 689 345 689 c 0
 249 689 201 652 201 593 c 0
 201 393 645 520 645 210 c 0
 645 70 526 -15 355 -15 c 0
 277.727503621 -15 216.672643207 7.85212340719 175.000007691 40.8980144994 c 0
 153.133999492 58.2374919919 155.552350247 57.2166129314 141.142857143 32 c 0
 129.830751888 12.2038158044 129.808955369 -5 97 -5 c 2
 70 -5 l 2
 38.3796208028 -5 45 5.46872638569 45 35 c 2
 45 221 l 2
 45 246.602245225 39.4895370114 255 67 255 c 2
 94 255 l 2
 130.671734674 255 118.379353507 237.584365306 126.999999016 209.233220182 c 0
 151.888346446 127.381675643 240.235280524 56 345 56 c 0
 471 56 515 116 515 185 c 0
 515 405 75 269 75 559 c 0
 75 699 194 760 325 760 c 0
 386.378045238 760 441.56445791 742.113061474 481.999996938 713.186577283 c 0
 504.133127844 697.353137773 502.82846769 690.525548304 518.75 716 c 2
 528.75 732 l 2
 539.72294779 749.556716465 544.717996401 750 574 750 c 2
 594 750 l 6
 613.45703125 750 615 746.78694961 615 728 c 2
 615 550 l 2
 615 525.236409323 618.8359375 505 591 505 c 2
 554 505 l 2
 531.971500567 505 537.28212141 542.897552065 532.067819931 559.999984571 c 0
EndSplineSet
EndChar

StartChar: T
Encoding: 84 84 31
Width: 725
Flags: HMW
LayerCount: 2
Fore
SplineSet
524 0 m 2
 194 0 l 2
 165.637736815 0 165 -0.52065084071 165 28 c 2
 165 52 l 2
 165 83.5484123307 181.324150958 75 210 75 c 2
 270 75 l 2
 304.31386865 75 295 92.814100476 295 124 c 2
 295 643 l 2
 295 671.692382812 297.743824955 680 268 680 c 2
 255 680 l 2
 132.464742789 680 93.12776375 649.600629129 86.1871754968 538 c 0
 84.3486851333 508.438142457 92.8717708102 495 58 495 c 2
 30 495 l 2
 6.6419920378 495 15 519.300442152 15 540 c 2
 15 729 l 2
 15 754.310546875 43.5812765938 750 66 750 c 2
 652 750 l 2
 689.182133155 750 710 761.075442035 710 720 c 2
 710 548 l 2
 710 519.193593139 720.400960136 495 688 495 c 2
 661 495 l 6
 634.36328125 495 640.141764572 516.631415335 638.812824503 538 c 0
 631.87223625 649.600629129 592.535257211 680 470 680 c 0
 428.099504073 680 430 677.789762929 430 636 c 2
 430 122 l 2
 430 75.6952094498 429.476268025 75 476 75 c 2
 530 75 l 2
 555.410821194 75 560 78.5018452923 560 52 c 2
 560 24 l 2
 560 -5.54833517626 551.71742725 0 524 0 c 2
EndSplineSet
EndChar

StartChar: U
Encoding: 85 85 32
Width: 830
Flags: HMW
LayerCount: 2
Fore
SplineSet
599 675 m 2
 533 675 l 2
 502.345634408 675 505 678.221833855 505 708 c 2
 505 734 l 2
 505 755.057509799 513.729431177 750 533 750 c 2
 777 750 l 2
 800.51519418 750 820 754.44140625 820 728 c 6
 820 712 l 2
 820 686.712787482 826.79407698 675 799 675 c 2
 745 675 l 2
 713.948862818 675 710 678.224623978 710 646 c 2
 710 300 l 2
 710 95 598 -15 420 -15 c 0
 177 -15 120 117 120 300 c 2
 120 648 l 2
 120 669.454129355 123.937575353 675 101 675 c 2
 43 675 l 2
 20.2264205371 675 10 668.986779622 10 694 c 2
 10 726 l 2
 10 746.725295267 7.43003293899 750 29 750 c 2
 341 750 l 2
 359.371218404 750 375 756.669935105 375 736 c 2
 375 708 l 2
 375 675.650193164 375.521643785 675 343 675 c 2
 283 675 l 2
 255.634670431 675 255 675.52035617 255 648 c 2
 255 310 l 2
 255 158 291 75 435 75 c 0
 549 75 630 128 630 300 c 2
 630 642 l 2
 630 673.795591107 631.028537146 675 599 675 c 2
EndSplineSet
EndChar

StartChar: V
Encoding: 86 86 33
Width: 850
Flags: HMW
LayerCount: 2
Fore
SplineSet
486.766037736 228 m 2
 653.056603774 625 l 2
 666.384903057 656.819813604 689.849429409 675 636 675 c 0
 603.15280104 675 575 663.036196618 575 700 c 2
 575 722 l 2
 575 748.806816381 573.976868017 750 601 750 c 2
 820 750 l 2
 851.670250264 750 855 752.799842822 855 720 c 2
 855 698 l 2
 855 671.994611929 851.153274152 675 826 675 c 2
 794 675 l 2
 755.944436923 675 758.414658334 664.382933725 747.452173913 639 c 2
 484.434782609 30 l 2
 474.777456695 7.6390775813 476.04665139 -15 442 -15 c 2
 418 -15 l 2
 375.466112018 -15 378.55367604 -0.0739478788192 366.428985507 28 c 2
 96.9333333333 652 l 2
 89.6985448541 668.751691445 91.2274181406 675 66 675 c 2
 26 675 l 2
 -9.0139746402 675 -5 680.128354498 -5 714 c 0
 -5 740.884450004 -10.9118034767 750 18 750 c 2
 304 750 l 2
 329.221173995 750 345 757.959914702 345 730 c 2
 345 688 l 2
 345 668.576872268 329.285473436 675 312 675 c 2
 270 675 l 2
 226.120168055 675 239.722884084 665.865145535 251.079245283 638 c 2
 416.543396226 232 l 2
 423.422241153 215.121352726 430.775359568 195.516388281 436 177.177789479 c 0
 448.800774558 132.246799103 451.066073408 123.705836429 468 179.619642883 c 0
 473.236146313 196.908773667 480.129834683 212.15681253 486.766037736 228 c 2
EndSplineSet
EndChar

StartChar: W
Encoding: 87 87 34
Width: 1220
Flags: HMW
LayerCount: 2
Fore
SplineSet
459.725623583 254 m 2
 591.426303855 584 l 2
 602.426256397 611.562381085 599.858351046 622.739111759 590.419354839 652 c 0
 585.427485322 667.474795502 587.835437213 675 566 675 c 2
 516 675 l 2
 487.375395635 675 490 678.213709441 490 706 c 2
 490 736 l 2
 490 756.999969452 507.322275067 750 526 750 c 2
 758 750 l 2
 779.73696334 750 790 755.90285261 790 732 c 2
 790 704 l 2
 790 670.615404227 784.207136356 675 752 675 c 2
 736 675 l 2
 714.082817013 675 726.492087627 659.932789419 730.645962733 646 c 2
 840.658385093 277 l 2
 844.656782904 263.588707344 848.69967996 249.387945886 852 235.175273701 c 0
 867.523065967 168.325924174 869.999104053 182.30525222 883.641182188 235.999997816 c 0
 887.993352563 253.129989211 894.090626957 272.760552502 899.739130435 289 c 2
 1022.52173913 642 l 2
 1029.44688895 661.909805719 1043.89222552 675 1012 675 c 2
 962 675 l 2
 932.904476345 675 940 687.393120027 940 714 c 2
 940 738 l 2
 940 756.098080798 955.934053778 750 972 750 c 2
 1188 750 l 2
 1224.0339041 750 1220 744.873001271 1220 710 c 0
 1220 684.140001368 1225.83978738 675 1198 675 c 2
 1144 675 l 2
 1110.71171198 675 1110.9581312 671.988691434 1102.65839416 648 c 2
 888.147445255 28 l 2
 880.510913089 5.92816652224 883.881018528 -10 852 -10 c 2
 828 -10 l 2
 794.441056996 -10 795.029573983 -6.87510615803 787.3046875 18 c 2
 662.154296875 421 l 2
 655.777503524 441.534076702 649.16005784 461.752761075 645.22048309 484.999995831 c 0
 637.998962749 527.613828359 636.957194165 530.884873139 627 482.807424871 c 0
 622.146894127 459.374624154 612.765427763 440.573757499 604.6484375 420 c 2
 449.9921875 28 l 2
 441.483856664 6.43432976263 444.142122702 -10 412 -10 c 2
 386 -10 l 2
 347.732436781 -10 351.184636971 0.935245501583 341.741605839 28 c 2
 126.118248175 646 l 2
 115.826398312 675.497561322 111.714558332 675 72 675 c 2
 26 675 l 2
 -1.70607896452 675 0 676.994713088 0 704 c 2
 0 732 l 2
 0 757.787529873 16.910253037 750 40 750 c 2
 320 750 l 2
 341.491934074 750 350 755.211195551 350 732 c 2
 350 698 l 2
 350 664.463020522 325.953654907 675 296 675 c 0
 247.159164295 675 258.562277312 667.463008844 269.938369781 634 c 2
 396.403578529 262 l 2
 401.661133355 246.534794868 407.135503485 231.585684356 411.301559424 214.999996407 c 0
 427.485218814 150.570442795 428.268853599 155.467295203 446 216.221669609 c 0
 449.897655949 229.576680247 454.841095511 241.76092682 459.725623583 254 c 2
EndSplineSet
EndChar

StartChar: X
Encoding: 88 88 35
Width: 880
Flags: HMW
LayerCount: 2
Fore
SplineSet
73 750 m 2
 351 750 l 2
 373.185135675 750 400 759.070279959 400 734 c 2
 400 702 l 2
 400 677.656085721 402.221540363 675 377 675 c 2
 339 675 l 2
 295.138644812 675 308.149581412 669.690597696 325.101941748 648 c 2
 416.54368932 531 l 2
 427.952045614 516.402972693 439.838475164 500.583883295 450 484.918547511 c 0
 464.283846967 462.898106422 468.924322217 464.975572678 481 484.269355989 c 0
 493.190113294 503.745977397 509.251438446 524.925130797 523.553398058 543 c 2
 606.63592233 648 l 2
 629.390717568 676.757593981 628.418588126 675 579 675 c 2
 553 675 l 2
 525.214581657 675 530 681.86298261 530 708 c 2
 530 732 l 2
 530 757.132612848 544.230818627 750 567 750 c 2
 803 750 l 2
 832.373728156 750 840 755.407299529 840 724 c 2
 840 698 l 2
 840 666.451587669 823.675849042 675 795 675 c 2
 745 675 l 2
 711.603046582 675 710.206707026 663.797006548 696.237735849 646 c 2
 569.083018868 484 l 2
 557.081621689 468.709758402 544.122899858 452.693520242 530.997938533 439 c 0
 506.734470947 413.685465631 506.978480617 405.233227378 526.775863478 384 c 0
 539.927271912 369.894759546 557.996556962 349.678748727 570.991044776 333 c 2
 750.964179104 102 l 2
 767.664154538 80.5651656319 770.6818105 75 811 75 c 2
 851 75 l 2
 874.377330804 75 875 75.518921068 875 52 c 2
 875 32 l 2
 875 -4.03390409704 869.873001271 0 835 0 c 2
 541 0 l 2
 518.932690337 0 515 -3.00968481761 515 20 c 2
 515 44 l 2
 515 71.6988116076 512.275694515 75 541 75 c 2
 577 75 l 2
 619.545567661 75 587.431346626 95.0644142415 574.290456432 112 c 2
 461.780082988 257 l 2
 449.182030327 273.235993001 436.695715643 290.532093992 425 307.708716026 c 0
 413.523032504 324.564079032 408.516065013 317.384779949 399 300.28853825 c 0
 387.867534187 280.288325347 372.616740094 261.544970639 358.639004149 244 c 2
 261.443983402 122 l 2
 243.708055446 99.7377154302 202.277696366 75 259 75 c 6
 283 75 l 2
 301.986446972 75 315 81.2603355815 315 60 c 2
 315 22 l 2
 315 -6.518420063 304.155420389 0 278 0 c 2
 36 0 l 2
 7.09650268256 0 5 -1.84220601107 5 28 c 2
 5 50 l 2
 5 72.3577915161 2.81661593377 75 26 75 c 2
 90 75 l 2
 135.84625664 75 138.337980664 84.0735196595 157.687919463 108 c 2
 290.318791946 272 l 2
 315.043109026 302.571977136 341.484909567 333.886494215 367.975935315 362 c 0
 378.067612794 372.709756424 375.71466423 378.025972725 361.751534539 391 c 0
 347.354413377 404.377276211 334.696688202 421.14359044 322.410596026 437 c 2
 157.370860927 650 l 2
 145.913420646 664.786952842 144.742052163 675 117 675 c 2
 77 675 l 2
 40.1248818587 675 40 675.000316006 40 712 c 2
 40 738 l 2
 40 756.253190654 56.8047913922 750 73 750 c 2
EndSplineSet
EndChar

StartChar: Y
Encoding: 89 89 36
Width: 815
Flags: HMW
LayerCount: 2
Fore
SplineSet
23 750 m 2
 323 750 l 2
 351.063963864 750 355 753.159835101 355 724 c 2
 355 704 l 2
 355 678.289867764 357.683717262 675 331 675 c 2
 303 675 l 2
 257.338016374 675 264.633864656 672.485663834 281.844765343 646 c 2
 387.76534296 483 l 2
 400.980535741 462.663286665 413.099105209 443.247447651 423.99788373 420 c 0
 441.306981723 383.079133249 441.036978384 391.169904564 460.848375451 422 c 0
 474.878999041 443.834172665 489.359047724 464.882584477 503.996389892 486 c 2
 605.194945848 632 l 2
 620.415563429 653.958911822 653.246740955 675 603 675 c 2
 545 675 l 2
 520.084379634 675 520 675.000213518 520 700 c 2
 520 720 l 2
 520 746.704764171 517.295712172 750 545 750 c 2
 795 750 l 2
 813.690978359 750 820 754.098203688 820 734 c 2
 820 696 l 2
 820 676.182275881 821.011056523 675 801 675 c 2
 755 675 l 2
 721.485934318 675 720.59212946 668.682052227 707.558139535 650 c 2
 508.023255814 364 l 2
 491.306178126 340.038855314 485 328.414008327 485 284 c 2
 485 118 l 2
 485 80.8943756477 480.379082963 75 519 75 c 2
 573 75 l 2
 601.692334873 75 605 77.7438249552 605 48 c 2
 605 26 l 2
 605 -6.35348393542 595.29797208 0 565 0 c 2
 271 0 l 2
 251.156671939 0 240 -5.92384230273 240 16 c 2
 240 46 l 2
 240 71.0702272002 236.911047143 75 263 75 c 2
 323 75 l 2
 356.41435308 75 350 84.6813133467 350 116 c 2
 350 250 l 2
 350 302.673392821 343.301904987 319.006133775 323.893442623 348 c 2
 129.767759563 638 l 2
 110.171354445 667.274629687 108.268569811 675 57 675 c 0
 22.107144009 675 -5 662.823861525 -5 702 c 2
 -5 730 l 2
 -5 753.906242946 0.478657029683 750 23 750 c 2
EndSplineSet
EndChar

StartChar: Z
Encoding: 90 90 37
Width: 725
Flags: HMW
LayerCount: 2
Fore
SplineSet
70 558 m 2
 70 732 l 2
 70 759.303173515 94.7710995827 750 119 750 c 2
 625 750 l 2
 646.70207317 750 670 758.519943876 670 734 c 2
 670 704 l 2
 670 662.28753793 652.037454202 652.546817752 634 630 c 2
 242 140 l 2
 202.248968172 90.3112102152 166.087044251 75 271 75 c 6
 450 75 l 2
 566.875065257 75 612.609849417 111.417048657 619.15931356 224 c 0
 620.07896005 239.808394964 613.753607888 255 633 255 c 2
 659 255 l 2
 679.69480343 255 690 260.787284238 690 238 c 2
 690 36 l 2
 690 -4.53814210917 684.23212643 0 645 0 c 2
 65 0 l 2
 42.6522424616 0 30 -6.69599405525 30 18 c 2
 30 44 l 2
 30 79.6726932823 38.384753782 85.4809422275 53.2 104 c 2
 480.4 638 l 2
 503.395362457 666.744203071 523.276196283 675 463 675 c 2
 310 675 l 2
 200.835130113 675 153.733957954 643.229297591 142.657657599 560 c 0
 139.044414404 532.849445801 149.464874821 515 115 515 c 2
 91 515 l 2
 61.719055422 515 70 531.465602058 70 558 c 2
EndSplineSet
EndChar

StartChar: a
Encoding: 97 97 38
Width: 606
VWidth: 1155
Flags: HMW
LayerCount: 2
Fore
SplineSet
199 379 m 0
 199 335 168 310 124 310 c 0
 78 310 45 339 45 383 c 0
 45 470 147 535 278 535 c 0
 398 535 486 473 486 352 c 2
 486 106 l 2
 486 86 498 62 522 62 c 0
 534.112697277 62 542.55745867 66.7683166477 550 76.5270929281 c 0
 562.742334205 93.2350402926 558.895132057 104.917067396 582 91.7142857143 c 0
 606.324280442 77.8146968904 606.996624597 73.9353619216 592.000008483 49.0022474357 c 0
 567.011526149 7.4568290439 527.970607799 -15 476 -15 c 0
 429.519234147 -15 395.653620337 0.885747016433 376.00000478 26.2698562097 c 0
 342.181304047 69.9492285697 364.310492146 60.2450814895 322.000002452 25.6430082219 c 0
 289.149922569 -1.22221785247 246.297184053 -15 200 -15 c 0
 91 -15 25 34 25 128 c 0
 25 222 112 294 304 294 c 0
 346.898898755 294 346 295.081416624 346 338 c 6
 346 362 l 2
 346 429 333 474 253 474 c 0
 199 474 168 457 168 442 c 0
 168 429 199 427 199 379 c 0
304 246 m 4
 188 246 162 180 162 143 c 0
 162 86 205 61 245 61 c 0
 303 61 346 95 346 186 c 2
 346 216 l 2
 346 251.859364419 337.782014455 246 304 246 c 4
EndSplineSet
EndChar

StartChar: b
Encoding: 98 98 39
Width: 658
VWidth: 1155
Flags: HMW
LayerCount: 2
Fore
SplineSet
72 715 m 2
 36 715 l 2
 8.29392103548 715 10 716.994713088 10 744 c 2
 10 760 l 2
 10 787.141363536 23.2836288152 780 48 780 c 6
 200 780 l 2
 226.069006042 780 230 783.11337849 230 756 c 2
 230 468 l 2
 230 396.102955502 243.086164735 455.064544733 264 478.714343455 c 0
 294.747510559 513.484266175 337.9785489 534 396 534 c 0
 505 534 618 440 618 260 c 0
 618 80 495 -15 386 -15 c 0
 324.685430831 -15 279.857012143 12.2655565645 249.999996863 56.6983558674 c 0
 236.594082115 76.6488537273 230 112.325218684 230 60 c 2
 230 30 l 2
 230 -2.22189950351 227.376410402 0 196 0 c 2
 40 0 l 2
 12.6804981281 0 10 -2.27531321093 10 26 c 2
 10 48 l 2
 10 69.7591809918 17.721008657 65 38 65 c 2
 76 65 l 2
 100.440672611 65 100 65.5393485682 100 90 c 2
 100 690 l 2
 100 716.695055262 98.0133152886 715 72 715 c 2
230 260 m 0
 230 146 287 62 358 62 c 0
 422 62 478 146 478 260 c 0
 478 374 422 458 358 458 c 0
 287 458 230 374 230 260 c 0
EndSplineSet
EndChar

StartChar: c
Encoding: 99 99 40
Width: 563
VWidth: 1155
Flags: HMW
LayerCount: 2
Fore
SplineSet
520 373 m 0
 520 315 475 280 436 280 c 0
 389 280 359 306 359 353 c 0
 359 399 402 406 402 428 c 0
 402 446 367 469 319 469 c 0
 224 469 185 384 185 270 c 0
 185 146 216 49 315 49 c 0
 379.997897077 49 422.005163246 83.88233655 448.080573479 147.999989673 c 0
 455.911233802 167.255048666 453.100633074 173 482 173 c 2
 512 173 l 2
 539.113301257 173 520.122781003 143.915405304 514 128.321619834 c 4
 480.986281295 44.2407345648 415.031204089 -15 303 -15 c 0
 132 -15 40 110 40 250 c 0
 40 400 138 535 299 535 c 0
 451 535 520 450 520 373 c 0
EndSplineSet
EndChar

StartChar: d
Encoding: 100 100 41
Width: 658
VWidth: 1155
Flags: HMW
LayerCount: 2
Fore
SplineSet
648 46 m 2
 648 30 l 2
 648 -3.13079620171 644.147504192 0 612 0 c 2
 460 0 l 2
 438.26303666 0 428 -5.90285261013 428 18 c 2
 428 42 l 2
 428 126.009128297 414.009914693 58.6829699448 388 31.8934260843 c 0
 359.304727876 2.33803306494 320.894094864 -15 272 -15 c 0
 163 -15 40 80 40 260 c 0
 40 440 153 534 262 534 c 0
 316.342472838 534 357.710706025 516.003474032 388.000001351 485.154812669 c 0
 420.169500933 452.391224471 428 393.634891241 428 488 c 2
 428 684 l 2
 428 708.763900117 432.463649451 715 406 715 c 2
 364 715 l 2
 342.846798904 715 338 711.431066272 338 734 c 2
 338 762 l 2
 338 784.50221423 344.943199649 780 366 780 c 2
 520 780 l 2
 544.657803683 780 558 787.212570651 558 760 c 2
 558 88 l 2
 558 61.5788880314 562.502726046 65 588 65 c 2
 618 65 l 2
 640.275901156 65 648 69.9693656586 648 46 c 2
428 260 m 0
 428 374 371 458 300 458 c 0
 236 458 180 374 180 260 c 0
 180 146 236 62 300 62 c 0
 371 62 428 146 428 260 c 0
EndSplineSet
EndChar

StartChar: e
Encoding: 101 101 42
Width: 569
VWidth: 1155
Flags: HMW
LayerCount: 2
Fore
SplineSet
483 256 m 2
 219 256 l 2
 188.350721633 256 180.219696402 261.038262035 181.929864575 229.000004581 c 0
 187.339692204 127.652398451 215.229964047 54 310 54 c 0
 372.49350736 54 410.069599124 82.5817414196 435.276032704 141 c 0
 440.431816772 152.949009998 440.090086804 173 459 173 c 2
 495 173 l 2
 525.288577906 173 511.378270936 146.331084478 503 124.997865668 c 0
 470.672476857 42.6837306807 408.549162418 -15 298 -15 c 0
 127 -15 40 110 40 250 c 0
 40 410 114 535 295 535 c 0
 477.208825297 535 517.734120715 409.245387682 523.275733018 289.000003308 c 0
 524.978162985 252.059608621 518.780966064 256 483 256 c 2
380.07468069 374.999997656 m 4
 372.409022455 432.22658538 351.297522604 476 294 476 c 0
 229.882765811 476 199.384537332 423.378947583 187.510130827 355.000002772 c 0
 180.975720987 317.371507437 185.794209044 319 227 319 c 2
 353 319 l 2
 394.91452145 319 384.709184525 340.401945913 380.07468069 374.999997656 c 4
EndSplineSet
EndChar

StartChar: f
Encoding: 102 102 43
Width: 430
VWidth: 1155
Flags: HMW
LayerCount: 2
Fore
SplineSet
245 424 m 2
 245 90 l 2
 245 58.057302869 256.220825231 65 286 65 c 2
 334 65 l 2
 358.044233873 65 365 69.7635370147 365 44 c 2
 365 16 l 2
 365 -4.03911958947 358.746198212 0 340 0 c 2
 54 0 l 2
 38.2740859052 0 25 -5.69034432919 25 12 c 2
 25 40 l 2
 25 64.9156203658 25.0002135177 65 50 65 c 2
 94 65 l 2
 118.952183122 65 115 70.4742960668 115 94 c 2
 115 420 l 2
 115 446.621095841 120.577446785 455 92 455 c 2
 44 455 l 2
 22.0852602076 455 25 458.864227168 25 480 c 2
 25 498 l 2
 25 521.660484194 26.9641105038 520 50 520 c 2
 92 520 l 2
 115.443636237 520 115 520.539762274 115 544 c 6
 115 572 l 2
 115 703 192 795 342 795 c 0
 473 795 540 741 540 674 c 0
 540 621 503 588 458 588 c 0
 413 588 383 618 383 656 c 0
 383 696 411 703 411 718 c 0
 411 730 386 740 344 740 c 0
 274 740 245 677 245 550 c 0
 245 523.295235829 242.295712172 520 270 520 c 2
 354 520 l 2
 373.843328061 520 385 525.923842303 385 504 c 2
 385 476 l 2
 385 451.047816878 379.525703933 455 356 455 c 2
 278 455 l 2
 246.204408893 455 245 456.028537146 245 424 c 2
EndSplineSet
EndChar

StartChar: g
Encoding: 103 103 44
Width: 617
VWidth: 1155
Flags: HMW
LayerCount: 2
Fore
SplineSet
180 345 m 0
 180 271 195 205 264 205 c 0
 333 205 348 271 348 345 c 0
 348 419 333 485 264 485 c 0
 195 485 180 419 180 345 c 0
45 345 m 0
 45 455 133 535 264 535 c 0
 313.388646796 535 357.066277491 523.577967799 391.999995773 503.26131699 c 0
 419.155081372 487.468540872 414.454733236 487.679626735 437.999997965 506.481825379 c 0
 461.994814474 525.643016032 489.705001488 535 518 535 c 0
 589 535 622 491 622 439 c 0
 622 400 589 374 559 374 c 0
 526 374 501 398 501 428 c 0
 501 462 525 463 525 477 c 0
 525 484 520 487 509 487 c 0
 498.296420002 487 485.21429416 484.22502985 472.000000921 475.430320684 c 0
 450.293660966 460.983770762 450.241186607 454.506337176 462.161055967 432.000003583 c 0
 475.73996323 406.361180921 483 376.890596589 483 345 c 0
 483 235 395 155 264 155 c 0
 250.904610252 155 238.237943585 155.428723082 226 156.84759883 c 0
 209.464922257 158.764687321 200.14401665 158.892662047 186.000000986 153.689618684 c 0
 162.609963596 145.085316928 145 132.364378836 145 116 c 0
 145 89 182 89 237 89 c 0
 262 89 320 90 348 90 c 0
 463 90 555 54 555 -82 c 0
 555 -193 455 -265 275 -265 c 0
 112 -265 20 -220 20 -135 c 0
 20 -88.832033338 53.7626953125 -49.9169921875 88.9921875 -26 c 4
 126.494140625 -0.5400390625 121.000976562 -1.70703125 88.1318359375 20 c 4
 68.7685546875 32.787109375 52 54.0579184916 52 84 c 0
 52 119.281815845 74.9430314952 146.915954525 111.353671935 165.999994845 c 0
 153.284496629 187.977349251 142.129417307 178.917448458 109.420589693 205.999996977 c 0
 68.681680243 239.731364692 45 288.115124354 45 345 c 0
444 -107 m 0
 444 -33 400 -9 345 -9 c 2
 251 -9 l 2
 239.125353425 -9 226.611218273 -9 214.000001747 -8.81919759898 c 0
 177.940904812 -8.30223150843 173.967672002 -19.459301015 164.99038694 -43.999998878 c 0
 157.033399985 -65.7515653513 155 -87.3325626501 155 -102 c 0
 155 -170 195 -203 291 -203 c 0
 375 -203 444 -169 444 -107 c 0
EndSplineSet
EndChar

StartChar: h
Encoding: 104 104 45
Width: 690
VWidth: 1155
Flags: HMW
LayerCount: 2
Fore
SplineSet
85 715 m 2
 37 715 l 2
 10.091130005 715 10 715.000230599 10 742 c 2
 10 762 l 2
 10 790.676130015 43.6023249277 780 69 780 c 2
 213 780 l 6
 239.333818728 780 230 753.342037714 230 730 c 2
 230 478 l 2
 230 388.702664368 240.973234846 450.15768078 271 481.279347135 c 0
 302.03498916 513.446001553 345.056495118 535 403 535 c 0
 520 535 575 476 575 369 c 2
 575 106 l 2
 575 72.6164465528 569.384616151 65 605 65 c 2
 641 65 l 2
 656.886423045 65 665 69.5043870836 665 52 c 2
 665 26 l 2
 665 -0.93990712005 663.905247017 0 637 0 c 2
 411 0 l 2
 390.439554333 0 375 -7.06693357075 375 16 c 2
 375 44 l 2
 375 63.0021501586 373.320094307 65 393 65 c 2
 417 65 l 2
 453.850642148 65 445 80.2765045599 445 114 c 2
 445 358 l 2
 445 432 431 463 380 463 c 0
 328.456907637 463 285.833488521 436.584044613 259.36353265 394.000003001 c 0
 240.641087176 363.879915117 230 325.671153257 230 283 c 2
 230 108 l 2
 230 83.5446915904 221.557487145 65 249 65 c 2
 273 65 l 2
 289.327482092 65 300 70.2661183217 300 52 c 2
 300 36 l 2
 300 20.4866659467 306.525217619 0 289 0 c 2
 49 0 l 2
 19.0597603246 0 10 -6.11206194905 10 26 c 2
 10 46 l 2
 10 67.9147397924 13.8642271678 65 35 65 c 2
 77 65 l 2
 100.945689711 65 100 66.0992771215 100 90 c 2
 100 686 l 2
 100 704.591066577 105.537721018 715 85 715 c 2
EndSplineSet
EndChar

StartChar: i
Encoding: 105 105 46
Width: 340
VWidth: 1155
Flags: HMW
LayerCount: 2
Fore
SplineSet
85 700 m 0
 85 744 118 780 170 780 c 0
 222 780 255 744 255 700 c 0
 255 656 222 620 170 620 c 0
 118 620 85 656 85 700 c 0
88 455 m 6
 46 455 l 2
 19.06009288 455 20 456.094752983 20 483 c 2
 20 498 l 2
 20 529.114771522 39.0920120206 520 67 520 c 2
 199 520 l 2
 242.817637718 520 240 516.694105413 240 474 c 2
 240 96 l 2
 240 73.4744326847 234.708561155 65 259 65 c 2
 298 65 l 2
 333.161673799 65 330 61.1405554056 330 27 c 0
 330 -2.6397112746 326.782466056 0 298 0 c 2
 55 0 l 2
 32.6522424616 0 20 -6.69599405525 20 18 c 2
 20 48 l 2
 20 68.0185761342 24.1034619622 65 43 65 c 2
 79 65 l 2
 120.011008722 65 110 82.4985948475 110 120 c 2
 110 414 l 2
 110 440.963296878 117.724768198 455 88 455 c 6
EndSplineSet
EndChar

StartChar: j
Encoding: 106 106 47
Width: 330
VWidth: 1155
Flags: HMW
LayerCount: 2
Fore
SplineSet
75 700 m 0
 75 744 108 780 160 780 c 0
 212 780 245 744 245 700 c 0
 245 656 212 620 160 620 c 0
 108 620 75 656 75 700 c 0
69 455 m 6
 33 455 l 2
 8.3277120951 455 10 456.971352145 10 481 c 2
 10 507 l 2
 10 527.757730046 34.6156266445 520 53 520 c 2
 197 520 l 2
 229.888618883 520 230 519.999718157 230 487 c 2
 230 11 l 2
 230 -120 183 -262 33 -262 c 0
 -88 -262 -125 -198 -125 -131 c 0
 -125 -78 -88 -45 -43 -45 c 0
 2 -45 32 -75 32 -113 c 0
 32 -163 0 -165 0 -180 c 0
 0 -192 12 -207 36 -207 c 0
 126 -207 100 -23 100 104 c 2
 100 443 l 2
 100 461.025335243 85.0286546976 455 69 455 c 6
EndSplineSet
EndChar

StartChar: k
Encoding: 107 107 48
Width: 656
VWidth: 1155
Flags: HMW
LayerCount: 2
Fore
SplineSet
69 715 m 2
 36 715 l 2
 16.2886464967 715 10 710.833440846 10 732 c 2
 10 759 l 2
 10 783.952183122 15.4742960668 780 39 780 c 2
 201 780 l 2
 236.174885445 780 230 771.068987677 230 738 c 2
 230 375 l 2
 230 285.90013256 230.817111157 297.653688926 291 345.8 c 6
 386 421.8 l 2
 398.032231094 431.425784875 430.155650614 445 394 445 c 2
 352 445 l 2
 324.582236092 445 329 451.161018244 329 477 c 2
 329 499 l 2
 329 528.730153128 347.337429435 520 374 520 c 2
 574 520 l 2
 595.805385349 520 612 527.457753198 612 503 c 2
 612 465 l 2
 612 442.060760948 608.142195839 445 586 445 c 2
 554 445 l 2
 514.473905114 445 508.271989271 436.082341081 488 419.23125 c 2
 402 347.74375 l 2
 375.539220274 325.748226853 352.069865513 320.349966919 376.429149798 291 c 2
 542.421052632 91 l 2
 554.332746439 76.6478616074 556.471425602 65 584 65 c 2
 623 65 l 2
 641.844841709 65 646 68.0938962713 646 48 c 2
 646 27 l 2
 646 -3.50968950202 641.512468761 0 612 0 c 2
 381 0 l 2
 352.915937104 0 359 9.8138501215 359 36 c 0
 359 62.3280468364 356.742216266 65 384 65 c 0
 424.044323313 65 401.395527 76.4616915361 387.537037037 93 c 2
 264.356481481 240 l 2
 236.155645586 273.654036207 230 288.401062646 230 213 c 2
 230 99 l 2
 230 66.7761782151 228.478050372 65 261 65 c 2
 282 65 l 2
 302.218277645 65 310 69.8175181876 310 48 c 2
 310 30 l 2
 310 -2.22189950351 307.376410402 0 276 0 c 2
 45 0 l 2
 7.72159771975 0 10 2.66233790176 10 39 c 0
 10 68.0630991995 13.8449198423 65 42 65 c 2
 78 65 l 2
 110.147113507 65 100 88.296566601 100 117 c 2
 100 687 l 2
 100 716.727526504 97.9886301844 715 69 715 c 2
EndSplineSet
EndChar

StartChar: l
Encoding: 108 108 49
Width: 330
VWidth: 1155
Flags: HMW
LayerCount: 2
Fore
SplineSet
75 715 m 6
 33 715 l 2
 12.6309000268 715 10 712.857215165 10 734 c 2
 10 764 l 2
 10 787.415177774 27.0977320398 780 48 780 c 2
 192 780 l 2
 240.128104903 780 230 773.937861435 230 719 c 6
 230 116 l 2
 230 78.3625095746 221.476260433 65 262 65 c 2
 296 65 l 2
 319.377330804 65 320 65.518921068 320 42 c 2
 320 18 l 2
 320 -6.88708249308 306.588385782 0 284 0 c 2
 48 0 l 2
 12.7589957337 0 10 -2.40559968024 10 34 c 0
 10 54.6948034297 4.21271576173 65 27 65 c 2
 66 65 l 2
 107.8601415 65 100 76.7336447292 100 116 c 2
 100 686 l 2
 100 712.328046836 102.257783734 715 75 715 c 6
EndSplineSet
EndChar

StartChar: m
Encoding: 109 109 50
Width: 953
VWidth: 1155
Flags: HMW
LayerCount: 2
Fore
SplineSet
80 465 m 2
 54 465 l 2
 31.9853673763 465 25 460.363116418 25 484 c 0
 25 516.662137827 22.1822080418 520 56 520 c 2
 206 520 l 2
 236.426561317 520 235 518.340017574 235 488 c 0
 235 413.11193179 240.937693051 456.449865266 266 485.122430153 c 0
 292.582762256 515.534473914 329.302872433 535 379 535 c 0
 442.514642518 535 484.594575239 517.462510167 510.000000717 484.427617309 c 0
 550.502982589 431.761242259 524.243696659 437.939710298 570 486.12566315 c 0
 598.20998565 515.833592753 636.159990766 535 685 535 c 0
 802 535 847 476 847 369 c 2
 847 98 l 2
 847 69.7834754669 838.888182601 55 870 55 c 2
 900 55 l 2
 920.218277645 55 928 59.8175181876 928 38 c 2
 928 20 l 2
 928 -2.93923905205 924.142195839 0 902 0 c 2
 678 0 l 2
 654.194765027 0 644 -6.11895676795 644 20 c 2
 644 30 l 6
 644 44.833984375 639.620917753 55 656 55 c 2
 684 55 l 2
 720.1765107 55 717 58.863552995 717 94 c 2
 717 358 l 2
 717 432 708 473 662 473 c 0
 594 473 541 386 541 283 c 2
 541 100 l 2
 541 69.6905484738 532.648917331 55 566 55 c 2
 584 55 l 2
 597.053940063 55 602 54.080078125 602 40 c 2
 602 26 l 2
 602 -0.93990712005 600.905247017 0 574 0 c 2
 382 0 l 2
 354.301188392 0 351 -2.72430548495 351 26 c 0
 351 51.0702272002 347.911047143 55 374 55 c 2
 388 55 l 2
 419.027541404 55 411 69.7162283368 411 98 c 2
 411 358 l 2
 411 432 402 473 356 473 c 0
 278 473 235 386 235 283 c 2
 235 82 l 2
 235 56.1912019617 233.978197609 55 260 55 c 2
 280 55 l 2
 298.393283512 55 308 60.27887112 308 40 c 2
 308 20 l 2
 308 -8.55938503123 289.583061978 0 264 0 c 2
 54 0 l 2
 34.5595887495 0 25 -5.39913103946 25 16 c 2
 25 30 l 2
 25 49.4376955236 21.1770958534 55 42 55 c 2
 84 55 l 2
 111.708923051 55 105 66.6522227986 105 92 c 2
 105 428 l 2
 105 456.650660076 110.70406792 465 80 465 c 2
EndSplineSet
EndChar

StartChar: n
Encoding: 110 110 51
Width: 705
VWidth: 1155
Flags: HMW
LayerCount: 2
Fore
SplineSet
82 455 m 2
 42 455 l 2
 21.2450889705 455 25 460.506370057 25 480 c 2
 25 502 l 2
 25 523.441140309 29.7914215439 520 50 520 c 2
 210 520 l 2
 234.030663297 520 245 526.403898499 245 500 c 2
 245 478 l 6
 245 402.636806321 252.770690159 444.771616615 282 477.002698396 c 0
 313.303651225 511.521150871 357.524531683 535 418 535 c 0
 535 535 590 476 590 369 c 2
 590 98 l 2
 590 66.7749630934 588.480095169 65 620 65 c 2
 644 65 l 6
 663.7109375 65 680 69.1665591541 680 48 c 2
 680 22 l 2
 680 -3.99628741146 674.528100467 0 650 0 c 2
 414 0 l 2
 395.575237123 0 390 -3.76126889172 390 16 c 2
 390 44 l 2
 390 71.4222199954 400.875977667 65 426 65 c 2
 440 65 l 2
 469.923309208 65 460 89.3755078306 460 116 c 2
 460 358 l 2
 460 432 446 463 395 463 c 0
 307 463 245 386 245 283 c 2
 245 120 l 2
 245 79.0328590073 235.932196034 65 280 65 c 0
 314.881868512 65 315 64.9997010752 315 30 c 0
 315 4.58917880564 318.501845292 0 292 0 c 2
 58 0 l 2
 24.5871011178 0 25 0.536764503162 25 34 c 0
 25 59.737360475 21.0978597337 65 48 65 c 2
 80 65 l 2
 133.046608302 65 115 112.924008131 115 160 c 2
 115 438 l 2
 115 461.251719854 103.14536518 455 82 455 c 2
EndSplineSet
EndChar

StartChar: o
Encoding: 111 111 52
Width: 598
VWidth: 1155
Flags: HMW
LayerCount: 2
Fore
SplineSet
40 245 m 0
 40 405 128 535 299 535 c 0
 470 535 558 410 558 270 c 0
 558 110 470 -15 299 -15 c 0
 128 -15 40 105 40 245 c 0
185 270 m 0
 185 146 210 45 299 45 c 0
 388 45 413 146 413 250 c 0
 413 374 388 475 299 475 c 0
 210 475 185 374 185 270 c 0
EndSplineSet
EndChar

StartChar: p
Encoding: 112 112 53
Width: 658
VWidth: 1155
Flags: HMW
LayerCount: 2
Fore
SplineSet
68 455 m 2
 26 455 l 2
 8.41916310069 455 10 456.929722297 10 474 c 2
 10 498 l 2
 10 523.396308592 14.5094906732 520 39 520 c 6
 208 520 l 2
 234.733803223 520 230 513.126509139 230 488 c 2
 230 460 l 2
 230 412.5703125 248.950195312 458.388671875 261 473.026367188 c 0
 291.958984375 510.6328125 335.416710567 534 396 534 c 0
 505 534 618 440 618 260 c 0
 618 80 495 -15 386 -15 c 0
 326.039496316 -15 281.845026036 11.0745937071 251.999996796 53.7798320301 c 0
 210.74474835 112.811947658 230 55.4114748689 230 -14 c 2
 230 -138 l 2
 230 -177.787948475 224.501186854 -185 266 -185 c 2
 292 -185 l 2
 310.393283512 -185 320 -179.72112888 320 -200 c 2
 320 -218 l 2
 320 -249.891994068 319.999726697 -250 288 -250 c 2
 34 -250 l 2
 13.9417143402 -250 10 -252.950477656 10 -232 c 2
 10 -204 l 2
 10 -179.35699689 19.4006016425 -185 42 -185 c 2
 76 -185 l 2
 113.234723743 -185 100 -147.00216425 100 -114 c 2
 100 430 l 2
 100 458.467311383 95.5069897567 455 68 455 c 2
230 260 m 0
 230 146 287 62 358 62 c 0
 422 62 478 146 478 260 c 0
 478 374 422 458 358 458 c 0
 287 458 230 374 230 260 c 0
EndSplineSet
EndChar

StartChar: q
Encoding: 113 113 54
Width: 658
VWidth: 1155
Flags: HMW
LayerCount: 2
Fore
SplineSet
648 499 m 6
 648 471 l 2
 648 451.655279025 643.194959184 455 625 455 c 2
 581 455 l 2
 550.801234888 455 558 442.645792756 558 415 c 2
 558 -139 l 2
 558 -169.519107536 549.378760738 -185 583 -185 c 2
 613 -185 l 2
 633.397905618 -185 648 -178.138862223 648 -201 c 2
 648 -236 l 2
 648 -256.033692108 634.940714594 -250 617 -250 c 2
 361 -250 l 2
 342.856638945 -250 338 -253.410582182 338 -234 c 2
 338 -208 l 2
 338 -181.175847555 343.172939145 -185 369 -185 c 2
 397 -185 l 2
 434.637831346 -185 428 -175.379415307 428 -140 c 2
 428 46 l 2
 428 117.54263374 420.677540214 71.5808997507 399 44.4029427762 c 0
 369.397306035 7.28891900034 327.437163413 -15 272 -15 c 0
 163 -15 40 80 40 260 c 0
 40 440 153 534 262 534 c 0
 327.309340462 534 373.879365661 508.006756247 405.000001189 464.95006678 c 0
 420.33260708 443.736770863 428 403.565124729 428 461 c 2
 428 495 l 2
 428 523.877850091 433.154784971 520 461 520 c 2
 617 520 l 2
 641.044233873 520 648 524.763537015 648 499 c 6
428 260 m 0
 428 374 371 458 300 458 c 0
 236 458 180 374 180 260 c 0
 180 146 236 62 300 62 c 0
 371 62 428 146 428 260 c 0
EndSplineSet
EndChar

StartChar: r
Encoding: 114 114 55
Width: 503
VWidth: 1155
Flags: HMW
LayerCount: 2
Fore
SplineSet
281 0 m 2
 41 0 l 2
 18.4642259808 0 5 -6.9453643111 5 18 c 2
 5 32 l 2
 5 55.8003649728 -0.686138900787 65 25 65 c 2
 65 65 l 2
 95.4223266999 65 95 65.537450542 95 96 c 2
 95 424 l 2
 95 448.763900117 99.4636494515 455 73 455 c 2
 29 455 l 2
 7.02395309936 455 5 453.267964354 5 476 c 2
 5 502 l 2
 5 525.546188844 14.4326558701 520 36 520 c 2
 185 520 l 2
 213.655912098 520 225 526.948260734 225 496 c 2
 225 468 l 2
 225 430.568548703 237.072183585 456.356023979 251 476.637695312 c 4
 273.228515625 509.006835938 314.072465025 535 370 535 c 0
 444 535 493 494 493 426 c 0
 493 374 456 340 411 340 c 0
 367 340 330 370 330 411 c 0
 330 458 350 454 350 466 c 0
 350 471 346 476 335 476 c 0
 298.546147529 476 254.017482975 424.090493751 234.704495384 354.00000305 c 0
 223.911267674 314.829334975 225 271.0078226 225 222 c 2
 225 96 l 2
 225 62.3039908753 228.237153676 65 261 65 c 2
 293 65 l 2
 315.446563506 65 315 64.4597862468 315 42 c 2
 315 12 l 2
 315 -6.40277183861 297.32033559 0 281 0 c 2
EndSplineSet
EndChar

StartChar: s
Encoding: 115 115 56
Width: 500
VWidth: 1155
Flags: HMW
LayerCount: 2
Fore
SplineSet
372.00000085 404.826505075 m 0
 342.135820476 449.907119301 286.74177312 471 248 471 c 0
 185 471 160 443 160 406 c 0
 160 296 475 355 475 147 c 0
 475 23 385 -17 268 -17 c 0
 213.807349436 -17 169.484367849 -1.57864222236 136.000010896 18.1210832893 c 0
 114.488582003 30.7768211663 116.517997094 42.3240862852 100.6 17 c 24
 88.3039036028 -7.15304649453 91.270015472 -10 66 -10 c 24
 57 -10 53 -10 44 -10 c 24
 19.7746427274 -10 25 -1.59304492726 25 21 c 24
 25 71 25 99 25 149 c 24
 25 172.377330804 24.481078932 173 48 173 c 24
 59 173 65 173 76 173 c 24
 95.1870328178 173 91.8086329355 163.974733076 96.9593793393 150.999987853 c 4
 123.985924786 82.9200409935 191.753969567 50 248 50 c 0
 318 50 352 87 352 128 c 0
 352 245 42 179 42 385 c 0
 42 489 132 537 227 537 c 0
 279.816760568 537 316.695651244 523.959924634 342 506.606429845 c 0
 375.088945 483.914328968 363.567991484 473.162244397 387.083333333 513 c 24
 396.869902828 530.490890161 395.997914976 530 420 530 c 24
 430 530 436 530 446 530 c 0
 456.379235405 530 457 523.634270199 457 507 c 24
 457 465 457 441 457 399 c 24
 457 364.251101484 460.766623863 350 434 350 c 0
 425 350 410 350 410 350 c 2
 382.331452911 350 383.487268456 387.486230775 372.00000085 404.826505075 c 0
EndSplineSet
EndChar

StartChar: t
Encoding: 116 116 57
Width: 398
VWidth: 1155
Flags: HMW
LayerCount: 2
Fore
SplineSet
354 65.5730781537 m 4
 328.516248451 19.1683974981 286.565364815 -17 218 -17 c 0
 121 -17 98 37 98 96 c 2
 98 427 l 2
 98 446.224530637 103.123118799 455 82 455 c 2
 24 455 l 2
 5.60858606074 455 5 454.483759102 5 473 c 2
 5 497 l 2
 5 524.537039113 11.0796374007 519.439684952 35.9999971197 520.454749809 c 0
 101.315017294 523.115184182 153.113833574 541.148433577 161.736568088 661.999999987 c 0
 163.658286769 688.933765875 156.222605855 700 188 700 c 2
 208 700 l 2
 232.270912249 700 228 693.816141603 228 671 c 2
 228 547 l 2
 228 515.66689745 233.808520399 520 264 520 c 2
 330 520 l 2
 354.374376648 520 355 520.519324548 355 496 c 2
 355 468 l 2
 355 450.81997934 347.712335723 455 332 455 c 2
 246 455 l 2
 226.855402792 455 228 453.66470096 228 435 c 2
 228 104 l 2
 228 84 240 65 264 65 c 0
 277.236903359 65 294.416157956 77.7031317643 307.999999452 94.1220608908 c 0
 323.251794266 112.557062372 319.296688209 124.315878948 342 111.11627907 c 2
 358 101.813953488 l 2
 373.06115769 93.0574664596 361.808784409 79.7924973836 354 65.5730781537 c 4
EndSplineSet
EndChar

StartChar: u
Encoding: 117 117 58
Width: 705
VWidth: 1155
Flags: HMW
LayerCount: 2
Fore
SplineSet
614 65 m 6
 654 65 l 2
 673.711353503 65 680 69.1665591541 680 48 c 2
 680 34 l 2
 680 0.11475630256 679.999709616 0 646 0 c 2
 500 0 l 2
 465.241325278 0 460 -4.15117132027 460 32 c 2
 460 64 l 2
 460 120.251817255 451.703063244 80.2836436115 436 58.9258351863 c 0
 404.368163084 15.903228545 356.381352961 -15 287 -15 c 0
 170 -15 115 44 115 151 c 2
 115 428 l 2
 115 453.808798038 116.021802391 455 90 455 c 2
 52 455 l 2
 22.8146534766 455 25 457.603026599 25 486 c 2
 25 506 l 2
 25 527.935670507 48.565375191 520 68 520 c 2
 194 520 l 2
 226.364764768 520 245 529.783908745 245 494 c 2
 245 162 l 2
 245 88 259 57 310 57 c 0
 398 57 460 134 460 237 c 2
 460 438 l 2
 460 459.101953185 453.769100047 455 434 455 c 2
 394 455 l 2
 370.622669196 455 370 454.481078932 370 478 c 2
 370 502 l 2
 370 525.830944321 380.210977092 520 402 520 c 2
 550 520 l 2
 584.758674722 520 590 524.15117132 590 488 c 2
 590 112 l 2
 590 82.1394165924 586.988001154 65 614 65 c 6
EndSplineSet
EndChar

StartChar: v
Encoding: 118 118 59
Width: 619
VWidth: 1155
Flags: HMW
LayerCount: 2
Fore
SplineSet
360.808777429 184 m 2
 456.420062696 428 l 2
 463.986413657 447.309327653 474.631543584 455 444 455 c 2
 414 455 l 2
 392.92904101 455 395 457.565703518 395 478 c 2
 395 504 l 2
 395 525.868863521 406.109791915 520 426 520 c 2
 606 520 l 2
 624.851940975 520 619 506.85096792 619 490 c 2
 619 470 l 2
 619 453.003315334 616.434774511 455 600 455 c 2
 564 455 l 2
 537.36873601 455 539.71917214 444.065276663 532.646808511 426 c 2
 369.004255319 8 l 2
 362.49982399 -8.61458002522 364.317802001 -15 340 -15 c 2
 308 -15 l 2
 272.909858277 -15 274.939842741 3.12571249537 264.768085106 26 c 2
 89.5638297872 420 l 2
 80.7184127738 439.891607638 82.611814998 455 52 455 c 2
 20 455 l 2
 -2.52119006065 455 0 458.204374205 0 480 c 2
 0 502 l 2
 0 528.194771404 18.5974121321 520 42 520 c 2
 266 520 l 2
 287.724171701 520 291 522.594482075 291 500 c 2
 291 480 l 2
 291 456.187590763 292.018812826 455 268 455 c 2
 254 455 l 2
 220.935123132 455 219.339405143 456.72729311 228.796238245 432 c 6
 324.407226562 182 l 2
 328.344995973 171.703669318 332.493070867 162.636179262 334 154.077547499 c 0
 336.996309813 137.059950735 346.357271139 136.744026687 349.24952848 149.999972562 c 0
 351.435777856 160.02010562 355.795671377 171.206553354 360.808777429 184 c 2
EndSplineSet
EndChar

StartChar: w
Encoding: 119 119 60
Width: 895
VWidth: 1155
Flags: HMW
LayerCount: 2
Fore
SplineSet
320.913640032 196 m 0
 327.921102586 223.132019075 335.802466502 248.017276181 344.271186441 273 c 2
 419.86440678 496 l 2
 426.094724057 514.379435968 424.094177033 520 450 520 c 2
 480 520 l 2
 501.850692155 520 509.079810962 522.651883368 514.857923497 506 c 2
 603.68852459 250 l 2
 612.624201918 224.248362977 620.697688714 198.382006253 627.88435977 170 c 0
 638.131664523 129.530766704 637.363747314 135.520665853 646.568106312 174 c 2
 656.136212625 214 l 0
 667.299003322 249 l 0
 723.750830565 426 l 2
 731.938336649 451.671243036 737.675402108 455 702 455 c 2
 662 455 l 2
 638.037585132 455 641 458.852862154 641 482 c 2
 641 504 l 2
 641 524.039119589 647.253801788 520 666 520 c 2
 870 520 l 2
 894.374376648 520 895 520.519324548 895 496 c 2
 895 478 l 2
 895 455.077629263 894.999803564 455 872 455 c 2
 840 455 l 2
 810.842794896 455 813.029152015 448.970761097 806.174193548 428 c 2
 674.113978495 24 l 2
 665.415671213 -2.60995319723 668.175326226 -10 631 -10 c 2
 595 -10 l 2
 562.969561148 -10 565.342408728 15.6179545006 557.778393352 38 c 2
 478.360110803 273 l 2
 470.947372927 294.934412897 465.592676226 315.021086365 458.784998935 342 c 0
 455 357 449 357 445.250760638 342 c 0
 438.716669349 315.858332356 433.102924612 296.42524628 425.684210526 275 c 2
 338.772853186 24 l 2
 329.652877597 -2.33848949968 332.328472109 -10 295 -10 c 2
 261 -10 l 2
 228.735916403 -10 232.343667504 7.30391191065 224.924731183 30 c 6
 91.5569892473 438 l 2
 86.3042933988 454.069102431 85.6573707532 455 64 455 c 2
 28 455 l 2
 2.06394759794 455 0 453.20355373 0 480 c 2
 0 504 l 2
 0 526.121851105 11.92143486 520 32 520 c 2
 276 520 l 2
 292.431069667 520 311 526.567184533 311 508 c 2
 311 478 l 2
 311 454.054310289 309.900722879 455 286 455 c 2
 256 455 l 2
 213.563327072 455 220.213447582 451.059703919 229.778546713 420 c 2
 269.813148789 290 l 2
 279.605597471 258.202048661 288.67857685 226.168227017 296.91349481 192 c 0
 309.373499694 140.301090845 308.498405008 147.929761891 320.913640032 196 c 0
EndSplineSet
EndChar

StartChar: x
Encoding: 120 120 61
Width: 614
VWidth: 1155
Flags: HMW
LayerCount: 2
Fore
SplineSet
351.448275862 372 m 6
 404.896551724 434 l 2
 417.285511272 448.371193075 432.167015141 455 399 455 c 0
 367.790021973 455 370 457.616467469 370 488 c 2
 370 502 l 2
 370 523.441140309 374.791421544 520 395 520 c 2
 561 520 l 2
 577.636147761 520 584 523.948859343 584 506 c 2
 584 486 l 2
 584 458.933113182 587.13697831 455 559 455 c 2
 531 455 l 2
 513.006047153 455 511.343462715 447.264024236 503.372093023 438 c 2
 401.837209302 320 l 2
 373.848349891 287.47240663 367.655598669 285.777605925 396.165137615 252 c 2
 532.899082569 90 l 2
 546.880512347 73.4350451545 548.498397022 65 581 65 c 2
 593 65 l 2
 613.929121107 65 614 64.9998206451 614 44 c 2
 614 28 l 2
 614 6.25901680904 618.293237401 0 595 0 c 2
 383 0 l 2
 362.602094382 0 348 -6.86113777738 348 16 c 2
 348 34 l 2
 348 52.960248488 341.970346289 65 363 65 c 0
 401.161642933 65 399.18324895 64.7828160597 381.28125 86 c 2
 315.46875 164 l 2
 291.665487091 192.211274559 292.095959969 194.275298873 267.796875 166 c 2
 205.921875 94 l 2
 198.928471562 85.8622214541 171.240753147 65 193 65 c 0
 212.620656273 65 229 72.0658266456 229 50 c 2
 229 26 l 2
 229 2.64886674531 231.202730421 0 207 0 c 2
 41 0 l 2
 23.0902618048 0 10 -6.0813285923 10 14 c 2
 10 54 l 2
 10 70.2650594016 22.5025724274 65 37 65 c 2
 61 65 l 2
 94.9137504763 65 97.762660105 78.6238405014 112.765027322 96 c 2
 216.371584699 216 l 2
 242.432305922 246.184253061 244.602691048 247.283005477 218.782608696 278 c 2
 80.9275362319 442 l 2
 72.0245678738 452.591462357 69.7686172792 455 49 455 c 0
 23.6663490571 455 0 445.432022323 0 474 c 2
 0 494 l 2
 0 525.298924019 7.54319667013 520 37 520 c 2
 245 520 l 2
 268.351133255 520 271 522.202730421 271 498 c 2
 271 480 l 2
 271 454.562323118 270.461031833 455 245 455 c 0
 219.76017871 455 227.582769061 451.942844785 237.672413793 440 c 2
 298.5 368 l 2
 325.382242658 336.180202568 325.192853842 341.543710457 351.448275862 372 c 6
EndSplineSet
EndChar

StartChar: y
Encoding: 121 121 62
Width: 638
VWidth: 1155
Flags: HMW
LayerCount: 2
Fore
SplineSet
151 -265 m 0
 54 -265 3 -195 3 -128 c 0
 3 -72 28 -23 89 -23 c 0
 139 -23 164 -56 164 -97 c 0
 164 -165 106 -160 106 -176 c 0
 106 -189 118 -205 151 -205 c 0
 190 -205 246 -180 293 -60 c 0
 305.028015799 -29.3832325112 298.042730448 -18.8724422081 284.940451745 10 c 2
 93.4373716632 432 l 2
 85.7135155914 449.020443018 87.036710879 455 61 455 c 2
 35 455 l 2
 9.9260769141 455 0 448.920271857 0 476 c 2
 0 502 l 2
 0 524.161251382 6.21192956254 520 27 520 c 2
 271 520 l 2
 293.087197468 520 291 517.431669461 291 496 c 2
 291 470 l 2
 291 452.592720805 287.773044223 455 271 455 c 2
 257 455 l 2
 213.523938976 455 226.66841257 446.828294757 238.712074303 420 c 2
 316.374613003 247 l 2
 326.821743477 223.728116254 336.861328125 197.774414062 345.65625 174 c 0
 358.59765625 139.016601562 371.451171875 134.763671875 384.873046875 170 c 4
 396.35546875 200.14453125 407.546783871 232.579615673 419.114551084 262 c 2
 485.170278638 430 l 2
 490.123816492 442.598367929 502.837178934 455 481 455 c 2
 453 455 l 2
 429.241319119 455 423 450.590933848 423 476 c 2
 423 500 l 2
 423 527.652313881 437.901793575 520 463 520 c 2
 609 520 l 2
 626.707981203 520 638 525.643518164 638 506 c 2
 638 476 l 2
 638 452.037585132 634.147137846 455 611 455 c 2
 587 455 l 2
 560.031930719 455 562.098726208 440.126653837 554.906642729 422 c 2
 347 -102 l 2
 295 -233 209 -265 151 -265 c 0
EndSplineSet
EndChar

StartChar: z
Encoding: 122 122 63
Width: 560
VWidth: 1155
Flags: HMW
LayerCount: 2
Fore
SplineSet
256 460 m 2
 151.013859136 460 124.879817328 423.441299529 119.333633552 357.000009536 c 0
 117.907575306 339.916343851 125.568843074 318 104 318 c 2
 78 318 l 2
 49.2318091185 318 58 337.255764508 58 363 c 2
 58 489 l 2
 58 524.432239956 63.7815351031 520 98 520 c 2
 472 520 l 2
 495.599935591 520 509 527.082034244 509 501 c 2
 509 483 l 2
 509 453.721058546 499.928612217 448.517230654 487.67 433 c 2
 222.23 97 l 2
 191.799732501 58.4806740521 191.071154181 60 258 60 c 2
 299 60 l 2
 425.743942778 60 453.616323007 89.7358082853 458.891153693 171 c 0
 460.259559328 192.081696163 451.26584739 214 478 214 c 2
 498 214 l 2
 523.396308592 214 520 209.490509327 520 185 c 2
 520 37 l 2
 520 9.09421548325 525.981021631 0 496 0 c 2
 78 0 l 6
 39.6163237053 0 35 0.0295603485787 35 22 c 2
 35 41 l 2
 35 66.5990412758 44.2965698258 71.4419320932 55.3125 85 c 2
 328.3125 421 l 2
 344.507335747 440.932105535 378.427946362 460 328 460 c 2
 256 460 l 2
EndSplineSet
EndChar

StartChar: comma
Encoding: 44 44 65
Width: 265
Flags: HMW
LayerCount: 2
Fore
SplineSet
40 74 m 0
 40 117 79 153 127 153 c 0
 201 153 227 92 227 9 c 0
 227 -81.0595222374 146.703896298 -142.731533065 65.0000023882 -154.102612068 c 0
 43.6957451073 -157.067616318 38 -155.814453125 38 -132 c 2
 38 -127 l 6
 38 -103.934570312 46.2523964696 -107.165617794 64.9999987888 -102.359838995 c 0
 106.623031927 -91.6901497835 151.242678809 -58.4243863058 158.155058404 -14.0000027357 c 0
 161.156719177 5.29102833568 159.693783593 7.09165357888 146.000001285 1.97768983415 c 0
 133.283242778 -2.7714028923 120.272546744 -5 108 -5 c 0
 65 -5 40 31 40 74 c 0
EndSplineSet
EndChar

StartChar: exclam
Encoding: 33 33 67
Width: 359
Flags: HMW
LayerCount: 2
Fore
SplineSet
100 65 m 0
 100 109 136 145 180 145 c 0
 224 145 260 109 260 65 c 0
 260 21 224 -15 180 -15 c 0
 136 -15 100 21 100 65 c 0
258 649 m 0
 247.80239304 485.838288644 209.24355307 392.290512859 203.672478572 260 c 0
 202.977712653 243.502116186 209.376062089 228 190 228 c 2
 163 228 l 2
 149.87943389 228 154.80212489 248.730085106 154.327521428 260 c 4
 148.75644693 392.290512859 110.19760696 485.838288644 100 649 c 0
 100 656 100 662 100 668 c 0
 100 724 132 763 179 763 c 0
 226 763 259 724 259 668 c 0
 259 662 258 656 258 649 c 0
EndSplineSet
EndChar

StartChar: quotesingle
Encoding: 39 39 70
Width: 239
Flags: HMW
LayerCount: 2
Fore
SplineSet
188 679 m 16
 178.794494396 616.235189061 149.97942403 580.783700467 140.822870743 524 c 0
 138.207451562 507.780667819 145.138440885 488 124 488 c 2
 110 488 l 2
 94.3275677172 488 99.4384092186 508.758574891 97.6394290526 521 c 4
 89.0347697259 579.551669847 59.3665484183 615.137169875 50 679 c 8
 49 686 49 691 49 697 c 0
 49 736 80 763 119 763 c 0
 158 763 189 736 189 697 c 0
 189 691 189 686 188 679 c 16
EndSplineSet
EndChar

StartChar: question
Encoding: 63 63 75
Width: 570
Flags: HMW
LayerCount: 2
Fore
SplineSet
164 662 m 0
 164 632 204 621 204 570 c 0
 204 528 172 500 127 500 c 0
 82 500 45 533 45 591 c 0
 45 673 119 765 271 765 c 0
 452 765 530 680 530 550 c 0
 530 458.774094329 453.713479567 379.10675236 342.000005826 346.145988826 c 0
 317.330292059 338.867255342 307 344.596737251 307 311 c 2
 307 279 l 2
 307 239.405617893 314.344222733 229.01171875 272 229.01171875 c 2
 246 229.01171875 l 2
 219.26061689 229.01171875 227 245.001068515 227 269 c 2
 227 335 l 2
 227 374.498239916 235.098333389 370.147290986 261.472134754 381 c 4
 346.126397793 415.834875368 389 478.452175648 389 570 c 0
 389 644 360 713 271 713 c 0
 197 713 164 684 164 662 c 0
EndSplineSet
Refer: 1 46 N 1 0 0 1 149 0 2
EndChar

StartChar: parenleft
Encoding: 40 40 76
Width: 465
Flags: HMW
LayerCount: 2
Fore
SplineSet
440.666666667 -123 m 6
 429 -158 l 2
 422.573473544 -177.279579367 398.523290132 -163.68898285 381.000012145 -158.117215786 c 0
 182.866436732 -95.1179224634 55 79.712530689 55 325 c 0
 55 578.283160441 191.338487275 737.891577924 400.59782521 793.999984804 c 0
 413.256918656 797.394249418 423.575091683 804.274724952 428 791 c 2
 439.666666667 756 l 2
 445.183282234 739.450153297 444.404421023 740.202337019 427.99999885 734.731165702 c 0
 267.0070737 681.037115097 210 549.278396042 210 325 c 0
 210 108.02019095 263.35713603 -39.8577534062 412.611395493 -98.9999927279 c 0
 429.065794122 -105.520074534 447.15350903 -103.53947291 440.666666667 -123 c 6
EndSplineSet
EndChar

StartChar: asterisk
Encoding: 42 42 78
Width: 635
VWidth: 1155
Flags: HMW
LayerCount: 2
Fore
SplineSet
400 514.102362783 m 4
 445.008091214 501.812512989 485.744027854 504.572093246 536.91015625 484.255859375 c 0
 543.47265625 481.622070312 547.802734375 479.122070312 552.999023438 476.122070312 c 0
 586.774414062 456.622070312 594.65625 416.275390625 575.15625 382.5 c 0
 555.65625 348.724609375 516.774414062 335.377929688 482.999023438 354.877929688 c 0
 477.802734375 357.877929688 473.47265625 360.377929688 467.91015625 364.744140625 c 0
 424.903559963 398.762712921 406.897232247 435.266440999 373.999553583 467.999997794 c 0
 366.104094992 475.856067059 357.103192043 488.683644977 362.014486686 468 c 0
 373.396423958 420.065602501 397.689375243 385.663350088 406 329 c 0
 407 322 407 317 407 311 c 0
 407 272 376 245 337 245 c 0
 298 245 267 272 267 311 c 0
 267 317 267 322 268 329 c 0
 275.959850633 383.271708862 298.581339439 417.12185027 310.477459491 462 c 0
 316.472730118 484.617177003 312.305513695 480.243676555 300.000430236 468.000002206 c 0
 267.102694626 435.266444324 249.096171827 398.762714473 206.088867188 364.744140625 c 0
 200.526367188 360.377929688 196.196289062 357.877929688 191.000976562 354.877929688 c 0
 157.225585938 335.377929688 118.342773438 348.724609375 98.8427734375 382.5 c 0
 79.3427734375 416.275390625 87.2255859375 456.622070312 121.000976562 476.122070312 c 0
 126.196289062 479.122070312 130.526367188 481.622070312 137.088867188 484.255859375 c 0
 187.116531517 504.11977472 227.172775086 501.923952848 271 513.303461331 c 0
 294.01546187 519.279304978 292.542598892 521.198728353 270 526.954008804 c 0
 226.562496633 538.043901997 186.735792968 536.031400803 137.088867188 555.744140625 c 0
 130.526367188 558.377929688 126.196289062 560.877929688 121.000976562 563.877929688 c 0
 87.2255859375 583.377929688 79.3427734375 623.724609375 98.8427734375 657.5 c 0
 118.342773438 691.275390625 157.225585938 704.622070312 191.000976562 685.122070312 c 0
 196.196289062 682.122070312 200.526367188 679.622070312 206.088867188 675.255859375 c 0
 243.908007796 645.341098685 262.394451089 613.504607342 288.674714584 584.000002268 c 0
 309.604776059 560.502018767 319.164759776 553.334293154 305.68738443 594 c 0
 293.276692673 631.447169035 274.988132296 663.353643531 268 711 c 0
 267 718 267 723 267 729 c 0
 267 768 298 795 337 795 c 0
 376 795 407 768 407 729 c 0
 407 723 407 718 406 711 c 0
 399.136598328 664.204079506 381.372569296 632.591175691 368.982687986 596 c 0
 353.643579597 550.698838835 367.012990317 562.715556384 388.830916319 587.999997715 c 0
 413.309822127 616.368205478 431.795167067 646.688301885 467.911132812 675.255859375 c 0
 473.473632812 679.622070312 477.803710938 682.122070312 482.999023438 685.122070312 c 0
 516.774414062 704.622070312 555.657226562 691.275390625 575.157226562 657.5 c 0
 594.657226562 623.724609375 586.774414062 583.377929688 552.999023438 563.877929688 c 0
 547.803710938 560.877929688 543.473632812 558.377929688 536.911132812 555.744140625 c 0
 485.744287577 535.427903682 445.008152304 538.187487756 400 525.897631737 c 0
 380.924733842 520.688969247 380.728932453 519.364494972 400 514.102362783 c 4
EndSplineSet
EndChar

StartChar: at
Encoding: 64 64 79
Width: 1060
VWidth: 1155
Flags: HMW
LayerCount: 2
Fore
SplineSet
644 346 m 0
 644 387.927734375 644 468 584 468 c 0
 510 468 455 364 455 240 c 0
 455 173.072265625 460 132 514 132 c 0
 557.239566604 132 604.498827097 175.211709307 628.352871098 245.963750559 c 1
 640.916143324 300.05561709 l 2
 642.921920758 314.656901226 644 330.000339539 644 346 c 0
812 -88.9133537699 m 0
 729.710954697 -171.592415133 617.653141683 -219 469 -219 c 0
 306 -219 45 -112 45 221 c 0
 45 554 292 795 585 795 c 0
 858 795 1010 604 1010 421 c 0
 1010 261 912 70 741 70 c 0
 691.920509916 70 658.570329719 89.1700964249 638.999998528 116.057206602 c 0
 613.464847618 151.13920952 626.446127471 148.412466338 597.000007897 118.103278862 c 0
 567.223113359 87.4536213823 529.235053702 70 484 70 c 0
 375 70 314 125.583984375 314 230 c 0
 314 380 409 529 568 529 c 0
 623.407273955 529 649.622635089 508.535566269 662 473.21995864 c 0
 680.581985922 420.201070653 672.874863866 437.655663866 684.567741935 488 c 0
 689.724794663 510.203977019 685.667249763 520 715 520 c 2
 776 520 l 2
 818.684890107 520 822.806416466 523.472070895 814.335483871 487 c 2
 750 210 l 2
 748 197 736 145 778 145 c 0
 879 145 937 271 937 425 c 0
 937 602 786 732 602 732 c 0
 368 732 190 503 190 231 c 0
 190 -71 361 -154 495 -154 c 0
 581.134983445 -154 662.468316779 -125.876049344 739 -60.5382567583 c 0
 760.414824901 -42.2556667413 783.604902828 -12.6049028281 801 -30 c 6
 823 -52 l 2
 839.318873615 -68.3188736149 826.980673358 -73.8616782128 812 -88.9133537699 c 0
EndSplineSet
EndChar

StartChar: dollar
Encoding: 36 36 80
Width: 660
Flags: HMW
LayerCount: 2
Fore
SplineSet
342 835 m 6
 379 835 l 2
 393.604743524 835 395.081293272 836.24649683 394.152173913 822 c 2
 391.217391304 777 l 2
 389.675162591 753.352493058 392.3705952 755.661419657 412.999996768 751.680269616 c 0
 505.582323736 733.813336659 584 704.534747859 584 579 c 4
 584 521 539 503 510 503 c 0
 483 503 443 524 443 571 c 0
 443 607 485 612 485 635 c 0
 485 656.295824058 462.89060997 680.827168609 406 692.358251578 c 0
 385.924835373 696.427260314 385.868813068 694.988467036 384.434782609 673 c 2
 372.369565217 488 l 2
 370.80417516 463.997352461 366.543672852 457.237914893 387.999996846 451.827983557 c 0
 501.850884008 423.121972114 620 380.820751234 620 215 c 0
 620 86.4653048696 528.12207674 4.29102973278 373.000013421 -8.3062444364 c 0
 358.894410722 -9.45174328241 340.267293502 -4.23483297012 339.239130435 -20 c 2
 337.152173913 -52 l 2
 335.477389023 -77.680034977 340.114476105 -85 311 -85 c 2
 283 -85 l 2
 265.653947206 -85 259.761865661 -88.6513931937 260.913043478 -71 c 2
 263.52173913 -31 l 2
 265.20215435 -5.23363329946 263.38506624 -6.95953343568 240 -3.09284415544 c 0
 104 19.3945731008 36 74.3707559381 36 186 c 4
 36 244 81 262 110 262 c 0
 137 262 177 241 177 194 c 0
 177 158 140 153 140 130 c 0
 140 108.504042311 165.274084495 75.469915613 237 59.8133891845 c 0
 266.886921465 53.2895913006 269.044383025 53.6805397133 271.217391304 87 c 2
 285.695652174 309 l 2
 287.98185141 344.05505495 285.814359798 343.158260405 257.000003123 351.553289688 c 0
 159.033345427 380.095761392 70 424.548821825 70 555 c 0
 70 683.847454099 179.266069856 749.168123398 290.999996717 758.757497885 c 0
 311.807194876 760.543240325 314.939421873 757.404468712 316.347826087 779 c 2
 318.956521739 819 l 2
 320.139943018 837.145792944 323.242565649 835 342 835 c 6
180 585 m 0
 180 529.742729922 217.215540012 502.397114854 269.999997451 483.530391337 c 0
 295.10040959 474.558762965 296.425019248 473.516961796 298.47826087 505 c 2
 309.173913043 669 l 2
 311.655965896 707.058143746 294.752439116 699.432664265 264.999997942 691.737724796 c 0
 205.661042132 676.390759805 180 637.693845938 180 585 c 0
510 190 m 0
 510 259.973481345 461.148146025 291.642668097 396.000002768 313.493679361 c 0
 373.335129487 321.095590584 362.209296278 332.209209593 360.108695652 300 c 2
 346.543478261 92 l 2
 344.508092958 60.7907586873 337.566424042 49.143438446 372.000000265 53.4962392379 c 0
 475.236415621 66.5465116699 510 128.668296567 510 190 c 0
EndSplineSet
EndChar

StartChar: numbersign
Encoding: 35 35 81
Width: 660
Flags: HMW
LayerCount: 2
Fore
SplineSet
248 805 m 6
 278 805 l 2
 297.335587597 805 294.729024787 802.669613172 292.790697674 786 c 2
 266.860465116 563 l 2
 264.280575406 540.812948488 263.011864975 540 288 540 c 2
 396 540 l 2
 424.473427683 540 420.100004524 547.860038908 422.906976744 572 c 2
 447.790697674 786 l 2
 449.698930805 802.410804923 448.046187796 805 467 805 c 2
 500 805 l 2
 514.790510986 805 515.042681918 805.367064496 513.488372093 792 c 2
 487.906976744 572 l 2
 485.12978651 548.116163982 477.919732583 540 507 540 c 2
 650 540 l 2
 660.579563121 540 670 543.916384275 670 532 c 2
 670 500 l 2
 670 483.913587005 674.765351828 475 657 475 c 2
 505 475 l 2
 481.456630384 475 476.953533981 477.800392239 474.418604651 456 c 2
 458.023255814 315 l 2
 455.768334631 295.60767783 450.511898168 290 474 290 c 2
 625 290 l 2
 639.401281092 290 640 290.51275858 640 276 c 2
 640 241 l 2
 640 222.024691307 635.895032055 225 618 225 c 2
 473 225 l 2
 447.760038288 225 447.514789243 224.627187486 444.88372093 202 c 2
 418.372093023 -26 l 2
 416.098254569 -45.5550107043 420.654886487 -55 397 -55 c 2
 364 -55 l 2
 344.095198489 -55 351.185576771 -44.8040397731 353.023255814 -29 c 2
 378.720930233 192 l 2
 381.668257401 217.347013646 388.741145695 225 358 225 c 2
 254 225 l 2
 227.155424285 225 227.444895033 224.026097285 224.651162791 200 c 2
 197.558139535 -33 l 2
 195.122729197 -53.9445289037 195.555065508 -55 172 -55 c 2
 147 -55 l 2
 123.872299462 -55 131.097598204 -45.5606554481 133.255813953 -27 c 2
 160.11627907 204 l 2
 162.579790048 225.186194413 162.680982541 225 139 225 c 2
 17 225 l 2
 -6.71882358117 225 -10 222.35934481 -10 247 c 2
 -10 268 l 2
 -10 287.993929904 -11.6977503282 290 9 290 c 2
 151 290 l 2
 175.052728316 290 171.007429678 297.663895227 173.372093023 318 c 2
 189.418604651 456 l 2
 191.720922073 475.799929825 191.00717063 475 169 475 c 2
 41 475 l 2
 20.0708788928 475 20 475.000179355 20 496 c 2
 20 527 l 2
 20 546.600705779 36.5802475546 540 54 540 c 2
 170 540 l 2
 200.679399948 540 199.437677272 542.164024536 202.558139535 569 c 2
 227.674418605 785 l 2
 229.689903995 802.333174356 227.985293113 805 248 805 c 6
381 475 m 6
 288 475 l 2
 259.867593202 475 256.850534843 476.914599654 253.837209302 451 c 2
 237.674418605 312 l 2
 235.29144469 291.506424336 233.28683696 290 257 290 c 2
 355 290 l 2
 388.815863046 290 390.072276103 289.621574485 393.604651163 320 c 2
 409.418604651 456 l 2
 412.13741339 479.381755156 405.185562174 475 381 475 c 6
EndSplineSet
EndChar

StartChar: slash
Encoding: 47 47 82
Width: 520
Flags: HMW
LayerCount: 2
Fore
SplineSet
428 780 m 6
 455 780 l 2
 496.873115342 780 464.353917094 738.54456666 455.090322581 714 c 2
 150.512903226 -93 l 2
 140.637028179 -119.166848415 142.39196797 -150 104 -150 c 2
 65 -150 l 2
 24.9729298198 -150 50.6389200385 -122.20731563 59.5225806452 -99 c 2
 381.070967742 741 l 2
 391.459377459 768.13826134 388.031448192 780 428 780 c 6
EndSplineSet
EndChar

StartChar: percent
Encoding: 37 37 83
Width: 1000
Flags: HMW
LayerCount: 2
Fore
SplineSet
695 210 m 0
 695 108 701 45 765 45 c 0
 829 45 835 108 835 210 c 0
 835 312 829 375 765 375 c 0
 701 375 695 312 695 210 c 0
555 210 m 0
 555 353 642 435 765 435 c 0
 888 435 975 353 975 210 c 0
 975 67 868 -15 765 -15 c 0
 642 -15 555 67 555 210 c 0
709 750 m 6
 745 750 l 2
 778.593393886 750 751.275321974 726.65871084 742.068 711 c 2
 355.752 54 l 2
 338.434023887 24.5476596716 338.340840463 0 289 0 c 2
 265 0 l 2
 217.801661012 0 248.354561706 22.4572225997 261.76 45 c 2
 663.16 720 l 2
 675.270080883 740.364485789 674.516542682 750 709 750 c 6
165 540 m 0
 165 438 171 375 235 375 c 0
 299 375 305 438 305 540 c 0
 305 642 299 705 235 705 c 0
 171 705 165 642 165 540 c 0
25 540 m 0
 25 683 112 765 235 765 c 0
 358 765 445 683 445 540 c 0
 445 397 338 315 235 315 c 0
 112 315 25 397 25 540 c 0
EndSplineSet
EndChar

StartChar: hyphen
Encoding: 45 45 85
Width: 460
Flags: HMW
LayerCount: 2
Fore
SplineSet
87 425 m 2
 385 425 l 2
 401.996684666 425 400 422.434774511 400 406 c 2
 400 367 l 6
 400 350.408203125 401.058923855 350 376 350 c 6
 82 350 l 2
 62.6264541368 350 60 350.878652725 60 368 c 2
 60 404 l 2
 60 423.952148438 68.7707946928 425 87 425 c 2
EndSplineSet
EndChar

StartChar: plus
Encoding: 43 43 87
Width: 530
Flags: HMW
LayerCount: 2
Fore
SplineSet
195 283 m 2
 85 283 l 2
 60.0843796342 283 60 283.000213518 60 308 c 6
 60 328 l 2
 60 350.521190061 63.2043742055 348 85 348 c 2
 201 348 l 2
 230.301395868 348 233 345.690619139 233 376 c 2
 233 494 l 2
 233 518.810667065 231.979632975 520 257 520 c 2
 281 520 l 2
 302.607514976 520 297 509.693226058 297 490 c 2
 297 384 l 2
 297 359.752438779 290.319133864 348 317 348 c 2
 439 348 l 2
 458.843328061 348 470 353.923842303 470 332 c 2
 470 300 l 2
 470 277.277768499 459.74429516 283 439 283 c 2
 325 283 l 2
 306.606716488 283 297 288.27887112 297 268 c 2
 297 136 l 2
 297 111.189332935 298.020367025 110 273 110 c 2
 251 110 l 2
 227.849531784 110 233 118.443350296 233 140 c 2
 233 260 l 2
 233 289.47615903 222.4647154 283 195 283 c 2
EndSplineSet
EndChar

StartChar: less
Encoding: 60 60 89
Width: 560
Flags: HMW
LayerCount: 2
Fore
SplineSet
192 369 m 6
 458 266.227272727 l 2
 486.411514801 255.250096554 500 258.919865319 500 217 c 2
 500 187 l 2
 500 152.356721233 478.103272137 173.460099401 458 181.227272727 c 2
 82 326.5 l 2
 65.6430177188 332.819743154 60 331.140755126 60 355 c 24
 60 380 60 395 60 420 c 24
 60 446.956831372 71.7888058365 444.554765891 90 451.590909091 c 2
 460 594.545454545 l 2
 476.180786178 600.797121932 500 621.231591767 500 593 c 2
 500 565 l 2
 500 517.399777303 488.774767984 520.662978539 456 508 c 2
 188 404.454545455 l 2
 139.680239403 385.785547042 145.335407059 387.029501818 192 369 c 6
EndSplineSet
EndChar

StartChar: backslash
Encoding: 92 92 91
Width: 520
Flags: HMW
LayerCount: 2
Fore
SplineSet
135.483870968 750 m 6
 452.438709677 -78 l 2
 460.29165018 -98.5147041211 493.644885573 -150 461 -150 c 2
 425 -150 l 2
 383.910050891 -150 387.028334066 -139.476782569 376.280645161 -111 c 2
 56.9838709677 735 l 2
 48.3760740653 757.806983246 26.1171979843 780 65 780 c 2
 101 780 l 2
 130.39531234 780 127.807278021 770.054020901 135.483870968 750 c 6
EndSplineSet
EndChar

StartChar: bracketleft
Encoding: 91 91 92
Width: 345
Flags: HMW
LayerCount: 2
Fore
SplineSet
315 735 m 4
 315 704.5776733 314.462549458 705 284 705 c 2
 224 705 l 2
 181.741127879 705 185 701.104850751 185 660 c 2
 185 -9 l 2
 185 -65.1708955935 177.447874816 -75 236 -75 c 2
 284 -75 l 2
 314.356069403 -75 315 -74.4788191755 315 -105 c 0
 315 -146.577457821 317.967939391 -150 275 -150 c 2
 83 -150 l 2
 45.5912296744 -150 55 -133.154744722 55 -99 c 2
 55 738 l 2
 55 789.004741275 68.0573210212 780 116 780 c 2
 260 780 l 2
 308.433864658 780 315 785.303368187 315 735 c 4
EndSplineSet
EndChar

StartChar: braceleft
Encoding: 123 123 93
Width: 292
VWidth: 1155
Flags: HMW
LayerCount: 2
Fore
SplineSet
234.000015573 -149.331453937 m 4
 106.488813742 -143.071459249 35 -93.1002108573 35 -10 c 0
 35 127 115 162 115 225 c 0
 115 258.159998861 95.3762250249 267.117341919 72.0000008262 274.620929418 c 0
 53.8799181588 280.437336064 55 284.046631267 55 308 c 2
 55 332 l 2
 55 358.66044112 71.5244451481 353.795452189 87.9999992805 361.69605473 c 0
 103.683083902 369.216640514 115 380.818170598 115 406 c 0
 115 469 35 504 35 641 c 0
 35 713.507093269 89.4245477968 760.129340635 187.999986292 774.918835357 c 0
 212.515599566 778.596967949 262 786.146128654 262 759 c 6
 262 731 l 2
 262 705.05705907 245.058220613 713.785154132 226.000019778 709.599942388 c 0
 187.654238742 701.17914682 168 676.373472624 168 627 c 0
 168 551 202 531 202 431 c 0
 202 398.899872415 191.081067217 372.034849588 173.408235113 349.999997712 c 0
 152.907871009 324.439720569 126.617007013 324.536096139 154.695554757 300 c 0
 183.060155511 275.21393993 202 242.277068606 202 200 c 0
 202 100 168 80 168 4 c 0
 168 -45.3734556464 187.654225225 -70.7933242996 225.999980222 -79.4798218629 c 0
 254.656547764 -85.971419281 262 -77.0924086958 262 -114 c 2
 262 -130 l 2
 262 -153.956578203 255.845686025 -150.403938386 234.000015573 -149.331453937 c 4
EndSplineSet
EndChar

StartChar: bar
Encoding: 124 124 96
Width: 300
VWidth: 1155
Flags: HMW
LayerCount: 2
Fore
SplineSet
124 780 m 6
 174 780 l 2
 200.026980246 780 195 772.389009242 195 748 c 2
 195 -228 l 2
 195 -249.383120894 195.517999921 -250 174 -250 c 2
 130 -250 l 2
 101.122149909 -250 105 -244.845215029 105 -217 c 2
 105 762 l 2
 105 780.457791987 105.54252086 780 124 780 c 6
EndSplineSet
EndChar

StartChar: cent
Encoding: 162 162 98
Width: 563
VWidth: 1155
Flags: HMW
LayerCount: 2
Fore
SplineSet
313 615 m 2
 337 615 l 2
 371.172774249 615 363.848708858 609.678233791 361.089146205 581 c 4
 355.193460642 519.730201057 348.641396735 534.561413792 387.000006712 523.766125952 c 0
 477.89145612 498.186487923 520 433.152168954 520 373 c 0
 520 315 475 280 436 280 c 0
 389 280 359 306 359 353 c 0
 359 399 402 406 402 428 c 0
 402 438.068022676 391.050068454 449.700321286 373.000001395 457.997155428 c 0
 350.222309197 468.467074108 345.06906751 468.859449134 341.089146205 441 c 2
 292.517717633 101 l 2
 288.083643658 69.9614821729 274.921020612 49 315 49 c 0
 379.998046875 49 422.004882812 83.8828125 448.081054688 148 c 0
 455.911132812 167.254882812 453.100585938 173 482 173 c 2
 512 173 l 2
 539.11328125 173 520.123046875 143.915039062 514 128.321289062 c 0
 480.986328125 44.2412109375 415.03125 -15 303 -15 c 0
 278.471765395 -15 276.411604479 -11.7427920803 273.089146205 -35 c 2
 270.232003348 -55 l 2
 266.776766043 -79.1866611352 270.213190991 -85 241 -85 c 2
 225 -85 l 2
 190.631144684 -85 190.910003129 -85.2540015332 195.232003348 -55 c 2
 199.232003348 -27 l 2
 204.263611122 8.22125442042 193.210256146 3.52724578917 168.516014064 16.9999979878 c 0
 84.2859049726 62.9544914956 40 152.866981755 40 250 c 0
 40 378.454693577 111.86931616 495.90898162 233.627112801 526.999998944 c 0
 271.157257769 536.583371998 278.681768229 529.148354168 284.660574776 571 c 0
 288.238240579 596.043660616 281.619267478 615 313 615 c 2
225.517717633 157 m 2
 263.517717633 423 l 2
 268.901434715 460.686019573 265.270897138 463.441603834 240.031351367 441.000002088 c 0
 201.748960581 406.96142724 185 344.707891272 185 270 c 0
 185 221.464105284 189.749461847 177.064838627 201.467224527 141.00000352 c 0
 217.489065743 91.6881103385 219.113306163 112.169119705 225.517717633 157 c 2
EndSplineSet
EndChar

StartChar: sterling
Encoding: 163 163 99
Width: 590
VWidth: 1155
Flags: HMW
LayerCount: 2
Fore
SplineSet
413 377 m 6
 413 343 l 2
 413 311.451587669 396.675849042 320 368 320 c 2
 296 320 l 2
 265.286012357 320 274.16546301 307.051445766 269.952741047 283 c 0
 254.275216736 193.493232386 176.417941153 169.149250533 126.38465515 111 c 0
 73.0278629285 48.9881329743 61.2251974583 25.671721323 127.999996934 95.0631570062 c 0
 150.888562782 118.848633824 185.920636068 127.000000113 220 127 c 0
 300 127 340 83 406 83 c 0
 441.910049662 83 478.27917076 93.0995716153 497.999999227 115.787058711 c 0
 510.965062865 130.702492638 504.215752988 157 530 157 c 2
 552 157 l 2
 576.040922136 157 570.460854733 145.265749909 568.571703986 125 c 0
 557.384571775 4.99071858667 482.095751299 -35 400 -35 c 0
 303 -35 248 25 175 25 c 0
 153.71027189 25 132.690176454 20.955509908 116.000001068 12.8665297239 c 0
 97.488800548 3.89498025075 91.7880305757 -20 71 -20 c 2
 38 -20 l 2
 7.24570187 -20 17.6031591103 19.6625020126 22.0196593312 41 c 0
 43.1502278427 143.088404967 147 207.023301149 147 261 c 0
 147 307.188698948 144.67371539 320 94 320 c 2
 -8 320 l 2
 -37.9332640418 320 -37 321.091147341 -37 351 c 2
 -37 371 l 2
 -37 400.19660415 -29.4367780801 395 -2 395 c 2
 60 395 l 0
 102.346288445 395 l 1
 93.2091992613 410.903958376 83.813331309 426.684844529 75.3768771706 443 c 0
 58.8467922073 474.967329129 46 508.985775597 46 550 c 0
 46 690 171 765 332 765 c 0
 484 765 568 698 568 606 c 0
 568 548 533 520 494 520 c 0
 457 520 418 541 418 588 c 0
 418 624 450 629 450 652 c 0
 450 679 406 703 332 703 c 0
 213 703 197 634 197 560 c 0
 197 507.030728821 218.756608549 463.50840609 238.988377198 423 c 0
 247.378168014 406.201811999 245.727557159 395 272 395 c 2
 378 395 l 2
 400.347757538 395 413 401.695994055 413 377 c 6
EndSplineSet
EndChar

StartChar: section
Encoding: 167 167 101
Width: 534
VWidth: 1155
Flags: HMW
LayerCount: 2
Fore
SplineSet
347 658 m 0
 347 684 295 699 243 699 c 0
 180 699 145 681 145 634 c 0
 145 518 488 538 488 375 c 0
 488 342.170446173 470.4621662 311.333828006 443.94236171 284.000003694 c 0
 415.414731685 254.596724063 411.712329113 262.284837156 443.999998375 235.213374278 c 0
 470.716048521 212.813412425 488 183.340002988 488 142 c 0
 488 38 348 -15 253 -15 c 0
 145 -15 9 22 9 138 c 0
 9 196 54 219 83 219 c 0
 120 219 150 193 150 156 c 0
 150 120 118 115 118 92 c 0
 118 66 190 51 242 51 c 0
 305 51 370 69 370 116 c 0
 370 232 27 212 27 375 c 0
 27 410.254877796 47.224808421 443.211481908 77.0788015403 471.999996385 c 0
 112.51036709 506.167021669 78.5333769279 500.963719969 52.0332756034 534 c 4
 36.3929808748 553.497931351 27 577.524509554 27 608 c 0
 27 712 137 765 232 765 c 0
 340 765 456 728 456 612 c 0
 456 554 421 536 392 536 c 0
 365 536 315 557 315 594 c 0
 315 630 347 635 347 658 c 0
362 343 m 4
 362 401.30186801 295.645992804 424.148908294 222.000002373 447.595401151 c 0
 176.647147125 462.03427814 153 468.605227742 153 407 c 0
 153 344.761402407 228.617412458 322.927332664 307.999997602 297.635751866 c 0
 348.946158764 284.590155763 362 294.02198605 362 343 c 4
EndSplineSet
EndChar

StartChar: asciitilde
Encoding: 126 126 104
Width: 688
VWidth: 1155
Flags: HMW
LayerCount: 2
Fore
SplineSet
243 437 m 0
 196.725846796 437 177.426967651 419.735824603 170.441284885 386.000018548 c 0
 166.273134254 365.870859236 176.34553046 343 148 343 c 2
 114 343 l 2
 76.2987713588 343 90.7934915169 378.825117561 97.5633701945 403.999983305 c 0
 117.937655445 479.764988889 177.303785697 520 249 520 c 0
 369 520 359 416 435 416 c 0
 487.698023743 416 512.408325577 438.390177527 519.080611761 481.999978905 c 0
 522.875916849 506.805944427 518.174523369 510 548 510 c 2
 574 510 l 2
 597.917042706 510 599.060865124 509.294632741 596.931529793 486.000019143 c 4
 587.82700288 386.397841244 521.595428727 333 439 333 c 0
 302 333 326 437 243 437 c 0
EndSplineSet
EndChar

StartChar: copyright
Encoding: 169 169 105
Width: 870
Flags: HMW
LayerCount: 2
Fore
SplineSet
40 375 m 4
 40 588 218 760 435 760 c 4
 652 760 830 588 830 375 c 4
 830 162 652 -10 435 -10 c 4
 218 -10 40 162 40 375 c 4
100 375 m 4
 100 190 250 39 435 39 c 4
 620 39 770 190 770 375 c 4
 770 560 620 711 435 711 c 4
 250 711 100 560 100 375 c 4
EndSplineSet
Refer: 14 67 N 0.6 0 0 0.6 182 150 2
EndChar

StartChar: registered
Encoding: 174 174 106
Width: 870
Flags: HMW
LayerCount: 2
Fore
SplineSet
40 375 m 0
 40 588 218 760 435 760 c 0
 652 760 830 588 830 375 c 0
 830 162 652 -10 435 -10 c 0
 218 -10 40 162 40 375 c 0
100 375 m 0
 100 190 250 39 435 39 c 0
 620 39 770 190 770 375 c 0
 770 560 620 711 435 711 c 0
 250 711 100 560 100 375 c 0
EndSplineSet
Refer: 29 82 N 0.6 0 0 0.6 198 148 2
EndChar

StartChar: guillemotleft
Encoding: 171 171 108
Width: 695
Flags: HMW
LayerCount: 2
Fore
SplineSet
463 360.418945312 m 2
 637 213.622070312 l 2
 651.563476562 201.334960938 668.854492188 195.78125 657 178 c 2
 641.666992188 155 l 2
 631.60546875 139.908203125 622.103515625 153.98828125 609 163.12109375 c 2
 327 359.666992188 l 2
 316.651367188 366.879882812 305 368.776367188 305 387 c 4
 305 396.193359375 302.680348691 398.382960661 327 415.333007812 c 6
 607 610.484375 l 2
 624.29296875 622.537109375 631.27734375 635.583984375 644.333007812 616 c 2
 654.333007812 601 l 2
 667.822265625 580.766601562 658.267578125 579.3203125 641 564.751953125 c 2
 458 410.36328125 l 2
 427.766601562 384.85546875 433.90625 384.963867188 463 360.418945312 c 2
183 360.418908885 m 2
 357 213.622423014 l 2
 371.563932276 201.335445551 388.854406198 195.781609297 377 178 c 2
 361.666666667 155 l 2
 351.605438759 139.908158138 342.103748592 153.988296436 329 163.121212121 c 2
 47 359.666666667 l 2
 36.6512073139 366.879461569 25 368.776103361 25 387 c 0
 25 406.193683643 36.1412728864 407.765129587 47 415.333333333 c 2
 327 610.484848485 l 2
 344.292574081 622.537248602 351.277313564 635.584029655 364.333333333 616 c 2
 374.333333333 601 l 2
 387.822295755 580.766556367 378.267563332 579.320126182 361 564.752208845 c 2
 178 410.362801292 l 2
 147.766237091 384.855846408 153.90666363 384.963733835 183 360.418908885 c 2
EndSplineSet
EndChar

StartChar: mu
Encoding: 181 181 111
Width: 705
VWidth: 1155
Flags: HMW
LayerCount: 2
Fore
SplineSet
256 -143 m 0
 289 -143 312 -167 312 -201 c 0
 312 -236 279 -260 241 -260 c 0
 179 -260 115 -211 115 -122 c 2
 115 151 l 1
 115 321 l 1
 115 428 l 2
 115 453.80859375 116.021484375 455 90 455 c 2
 52 455 l 2
 22.814453125 455 25 457.602539062 25 486 c 2
 25 506 l 2
 25 527.935546875 48.5654296875 520 68 520 c 2
 194 520 l 2
 226.365234375 520 245 529.784179688 245 494 c 2
 245 162 l 2
 245 88 259 57 310 57 c 0
 398 57 460 134 460 237 c 2
 460 438 l 2
 460 459.1015625 453.76953125 455 434 455 c 2
 394 455 l 2
 370.623046875 455 370 454.481445312 370 478 c 2
 370 502 l 2
 370 525.831054688 380.2109375 520 402 520 c 2
 550 520 l 2
 584.758789062 520 590 524.151367188 590 488 c 2
 590 112 l 2
 590 82.1396484375 580.98828125 65 614 65 c 2
 654 65 l 2
 673.7109375 65 680 69.1669921875 680 48 c 2
 680 34 l 2
 680 0.115234375 680 0 646 0 c 2
 500 0 l 2
 465.241210938 0 460 -4.1513671875 460 32 c 2
 460 64 l 2
 460 120.251953125 451.703125 80.283203125 436 58.92578125 c 0
 404.368164062 15.9033203125 356.381835938 -15 287 -15 c 0
 249.810953461 -15 218.885882473 -9.03912004056 193.999992585 2.52939145525 c 0
 167.92592431 14.6502422642 165 30.0365322852 165 -15 c 6
 165 -119 l 2
 165 -156 189 -162 202 -162 c 0
 222 -162 221 -143 256 -143 c 0
EndSplineSet
EndChar

StartChar: asciicircum
Encoding: 94 94 113
Width: 545
Flags: HMW
LayerCount: 2
Fore
SplineSet
230 659.782608696 m 6
 164 611 l 2
 134.503559162 589.198282859 108.046397436 554.20160114 71 570.666666667 c 0
 41.7647860511 583.660095088 59.0171530393 589.017153039 77 607 c 2
 206 736 l 2
 222.574149664 752.574149664 228.907533051 770 263 770 c 2
 284 770 l 2
 304.3447199 770 307.510563596 767.489436404 317 758 c 2
 458 617 l 2
 477.792626481 597.207373519 506.864562123 585.273138721 473 570.222222222 c 0
 443.800122828 557.244499035 436.320103771 570.111227647 413 587.347826087 c 2
 317 658.304347826 l 2
 274.99860382 689.348858046 272.122775761 690.916834258 230 659.782608696 c 6
EndSplineSet
EndChar

StartChar: degree
Encoding: 176 176 115
Width: 320
Flags: HMW
LayerCount: 2
Fore
SplineSet
40 680 m 0
 40 746 94 800 160 800 c 0
 226 800 280 746 280 680 c 0
 280 614 226 560 160 560 c 0
 94 560 40 614 40 680 c 0
95 680 m 0
 95 643 123 615 160 615 c 4
 197 615 225 643 225 680 c 0
 225 717 197 745 160 745 c 4
 123 745 95 717 95 680 c 0
EndSplineSet
EndChar

StartChar: onequarter
Encoding: 188 188 119
Width: 1000
Flags: HMW
LayerCount: 2
Fore
SplineSet
720 750 m 6
 744 750 l 6
 775.065117774 750 758.404076458 739.269104866 749.018666667 724 c 6
 323.669333333 32 l 6
 311.454976711 12.128487057 311.874705891 0 278 0 c 6
 256 0 l 6
 221.534997819 0 247.610606598 20.2960406615 257.368 36 c 6
 686.088 726 l 6
 695.18224228 740.63665603 694.973440111 750 720 750 c 6
EndSplineSet
Refer: 6 52 N 0.6 0 0 0.6 535 32 2
Refer: 3 49 N 0.6 0 0 0.6 107 456 2
EndChar

StartChar: onehalf
Encoding: 189 189 120
Width: 1000
Flags: HMW
LayerCount: 2
Fore
SplineSet
720 750 m 6
 744 750 l 6
 775.065117774 750 758.404076458 739.269104866 749.018666667 724 c 6
 323.669333333 32 l 6
 311.454976711 12.128487057 311.874705891 0 278 0 c 6
 256 0 l 6
 221.534997819 0 247.610606598 20.2960406615 257.368 36 c 6
 686.088 726 l 6
 695.18224228 740.63665603 694.973440111 750 720 750 c 6
EndSplineSet
Refer: 4 50 N 0.6 0 0 0.6 576 17 2
Refer: 3 49 N 0.6 0 0 0.6 107 456 2
EndChar

StartChar: threequarters
Encoding: 190 190 121
Width: 1000
Flags: HMW
LayerCount: 2
Fore
SplineSet
720 750 m 6
 744 750 l 6
 775.065117774 750 758.404076458 739.269104866 749.018666667 724 c 6
 323.669333333 32 l 6
 311.454976711 12.128487057 311.874705891 0 278 0 c 6
 256 0 l 6
 221.534997819 0 247.610606598 20.2960406615 257.368 36 c 6
 686.088 726 l 6
 695.18224228 740.63665603 694.973440111 750 720 750 c 6
EndSplineSet
Refer: 6 52 N 0.6 0 0 0.6 535 32 2
Refer: 5 51 N 0.6 0 0 0.6 65 457 2
EndChar

StartChar: grave
Encoding: 96 96 123
Width: 395
Flags: HMW
LayerCount: 2
Fore
SplineSet
190 700 m 2
 171.021484375 700.643554688 145 716 145 745 c 0
 145 774 172.598601168 796.101283133 200 788 c 2
 384 736.933920705 l 2
 402.266471148 731.864371444 427.585854235 733.78781352 426 710 c 0
 424.488778293 687.3316744 403.199318464 695.463844288 382 695.914893617 c 6
 190 700 l 2
EndSplineSet
EndChar

StartChar: acute
Encoding: 180 180 124
Width: 395
Flags: HMW
LayerCount: 2
Fore
SplineSet
185 710 m 2
 -50 705 l 1
 -52 735 l 1
 175 798 l 2
 202.401367188 806.1015625 230 784 230 755 c 0
 230 726 203.978515625 710.643554688 185 710 c 2
EndSplineSet
EndChar

StartChar: cedilla
Encoding: 184 184 128
Width: 550
Flags: HMW
LayerCount: 2
Fore
SplineSet
225.000000875 -180.912008863 m 4
 300.715479863 -183.624966152 329 -170.438703606 329 -150 c 0
 329 -119.965565631 290.624004365 -102.577476232 191 -99.5044434462 c 0
 136.57740225 -97.8257071992 176.577576354 -74.0948033903 194.723493304 -51 c 2
 267 40.98828125 l 1
 357 40.98828125 l 1
 324.009207589 -1 l 2
 282.953476138 -53.2527491193 278.100307585 -45.3412448513 342.99999685 -71.0058736529 c 0
 384.625585333 -87.4667425594 410 -112.186150873 410 -140 c 0
 410 -186.528697114 359.773864 -241.717072849 215 -241.097357021 c 0
 189.904716449 -240.989934701 181 -245.169233939 181 -217 c 0
 181 -172.931079552 187.478614666 -179.567582075 225.000000875 -180.912008863 c 4
EndSplineSet
EndChar

StartChar: AE
Encoding: 198 198 526
Width: 1197
Flags: HMW
LayerCount: 2
Fore
SplineSet
290 295 m 1
 640 295 l 1
 640 220 l 1
 290 220 l 1
 290 295 l 1
0 75 m 1
 300 75 l 5
 300 0 l 5
 0 0 l 1
 0 75 l 1
596 750 m 1
 685 750 l 1
 169 0 l 1
 75 0 l 1
 596 750 l 1
EndSplineSet
Refer: 16 69 N 1 0 0 1 460 0 2
EndChar

StartChar: ae
Encoding: 230 230 529
Width: 875
VWidth: 1155
Flags: HMW
LayerCount: 2
Fore
SplineSet
346 250 m 1
 487 275 l 1
 487 151 507 54 616 54 c 0
 689 54 728 93 753 173 c 1
 824 173 l 1
 798 66 735 -15 604 -15 c 0
 433 -15 346 110 346 250 c 1
463 319 m 1
 757 319 l 1
 757 256 l 1
 463 256 l 1
 463 319 l 1
830 256 m 1
 690 256 l 1
 690 359 694 476 600 476 c 0
 511 476 487 374 487 270 c 1
 386 250 l 1
 386 410 430 535 611 535 c 0
 810 535 830 385 830 256 c 1
304 294 m 1
 304 246 l 1
 188 246 162 180 162 143 c 0
 162 86 205 61 245 61 c 0
 303 61 346 95 346 186 c 1
 405 174 l 5
 405 50 301 -15 200 -15 c 0
 91 -15 25 34 25 128 c 0
 25 222 112 294 304 294 c 1
476 352 m 1
 486 106 l 1
 346 128 l 1
 346 372 l 1
 476 352 l 1
45 383 m 1
 45 470 157 535 268 535 c 0
 388 535 456 473 456 352 c 1
 346 362 l 1
 346 429 333 474 253 474 c 0
 199 474 168 457 168 442 c 1
 45 383 l 1
304 294 m 1
 448 294 l 1
 448 246 l 1
 304 246 l 1
 304 294 l 1
199 379 m 0
 199 335 168 310 124 310 c 0
 78 310 45 339 45 383 c 1
 168 442 l 1
 168 429 199 427 199 379 c 0
EndSplineSet
EndChar

StartChar: perthousand
Encoding: 8240 8240 537
Width: 1470
Flags: HMW
LayerCount: 2
Fore
SplineSet
1165 210 m 0
 1165 108 1171 45 1235 45 c 0
 1299 45 1305 108 1305 210 c 0
 1305 312 1299 375 1235 375 c 0
 1171 375 1165 312 1165 210 c 0
1025 210 m 0
 1025 353 1112 435 1235 435 c 0
 1358 435 1445 353 1445 210 c 0
 1445 67 1338 -15 1235 -15 c 0
 1112 -15 1025 67 1025 210 c 0
695 210 m 0
 695 108 701 45 765 45 c 0
 829 45 835 108 835 210 c 0
 835 312 829 375 765 375 c 0
 701 375 695 312 695 210 c 0
555 210 m 0
 555 353 642 435 765 435 c 0
 888 435 975 353 975 210 c 0
 975 67 868 -15 765 -15 c 0
 642 -15 555 67 555 210 c 0
698 750 m 6
 733 750 l 6
 774.933759055 750 760.296802388 742.001364606 746.772 719 c 6
 343.992 34 l 6
 329.311031584 9.03236663907 329.812256535 0 288 0 c 6
 260 0 l 6
 217.5020594 0 255.293983221 34.1266533984 267.112 54 c 6
 665.538666667 724 l 6
 673.994592095 738.219605541 674.08161873 750 698 750 c 6
165 540 m 0
 165 438 171 375 235 375 c 0
 299 375 305 438 305 540 c 0
 305 642 299 705 235 705 c 0
 171 705 165 642 165 540 c 0
25 540 m 0
 25 683 112 765 235 765 c 0
 358 765 445 683 445 540 c 0
 445 397 338 315 235 315 c 0
 112 315 25 397 25 540 c 0
EndSplineSet
EndChar

StartChar: uni2031
Encoding: 8241 8241 538
Width: 1950
Flags: HMW
LayerCount: 2
Fore
SplineSet
698 750 m 2
 733 750 l 2
 774.933759055 750 760.296802388 742.001364606 746.772 719 c 2
 343.992 34 l 2
 329.311031584 9.03236663907 329.812256535 0 288 0 c 2
 260 0 l 2
 217.5020594 0 255.293983221 34.1266533984 267.112 54 c 2
 665.538666667 724 l 2
 673.994592095 738.219605541 674.08161873 750 698 750 c 2
1645 210 m 0
 1645 108 1651 45 1715 45 c 0
 1779 45 1785 108 1785 210 c 0
 1785 312 1779 375 1715 375 c 0
 1651 375 1645 312 1645 210 c 0
1505 210 m 0
 1505 353 1592 435 1715 435 c 0
 1838 435 1925 353 1925 210 c 0
 1925 67 1818 -15 1715 -15 c 0
 1592 -15 1505 67 1505 210 c 0
1995 210 m 1024
1165 210 m 0
 1165 108 1171 45 1235 45 c 0
 1299 45 1305 108 1305 210 c 0
 1305 312 1299 375 1235 375 c 0
 1171 375 1165 312 1165 210 c 0
1025 210 m 0
 1025 353 1112 435 1235 435 c 0
 1358 435 1445 353 1445 210 c 0
 1445 67 1338 -15 1235 -15 c 0
 1112 -15 1025 67 1025 210 c 0
695 210 m 0
 695 108 701 45 765 45 c 0
 829 45 835 108 835 210 c 0
 835 312 829 375 765 375 c 0
 701 375 695 312 695 210 c 0
555 210 m 0
 555 353 642 435 765 435 c 0
 888 435 975 353 975 210 c 0
 975 67 868 -15 765 -15 c 0
 642 -15 555 67 555 210 c 0
165 540 m 0
 165 438 171 375 235 375 c 0
 299 375 305 438 305 540 c 0
 305 642 299 705 235 705 c 0
 171 705 165 642 165 540 c 0
25 540 m 0
 25 683 112 765 235 765 c 0
 358 765 445 683 445 540 c 0
 445 397 338 315 235 315 c 0
 112 315 25 397 25 540 c 0
EndSplineSet
EndChar

StartChar: uniFB00
Encoding: 64256 64256 542
Width: 765
VWidth: 1155
Flags: HMW
LayerCount: 2
Fore
SplineSet
245 424 m 6
 245 94 l 2
 245 67.6719531636 242.742216266 65 270 65 c 2
 316 65 l 2
 338.014632624 65 345 69.6368835824 345 46 c 2
 345 16 l 2
 345 -4.03911958947 338.746198212 0 320 0 c 2
 48 0 l 2
 27.0147938549 0 25 -1.71510570786 25 20 c 2
 25 48 l 2
 25 66.1337295878 26.3271143703 65 44 65 c 2
 84 65 l 2
 113.800309199 65 115 63.9734091705 115 94 c 2
 115 418 l 2
 115 446.650660076 120.70406792 455 90 455 c 2
 46 455 l 2
 25.0708788928 455 25 455.000179355 25 476 c 2
 25 500 l 2
 25 523.342597313 29.5276611792 520 52 520 c 2
 92 520 l 2
 119.417763908 520 115 526.161018244 115 552 c 0
 115 683 192 775 342 775 c 0
 396.470382234 775 439.875590958 765.663759851 471.999956719 749.938762073 c 0
 508.03047912 732.30168594 500.77225426 741.264495333 529.999994163 765.361030197 c 0
 568.27168818 796.913767844 619.926222871 815 682 815 c 0
 803 815 880 761 880 694 c 0
 880 641 843 608 798 608 c 0
 753 608 723 638 723 676 c 0
 723 716 751 723 751 738 c 0
 751 750 726 760 684 760 c 0
 624 760 585 697 585 570 c 2
 585 556 l 2
 585 532.594898779 578.173976161 520 604 520 c 2
 674 520 l 2
 695.297758307 520 715 528.011118689 715 504 c 2
 715 486 l 2
 715 467.039751512 721.029653711 455 700 455 c 2
 604 455 l 2
 581.141761715 455 585 449.514757899 585 428 c 2
 585 88 l 2
 585 60.2145816567 591.86298261 65 618 65 c 2
 678 65 l 2
 703.808798038 65 705 66.0218023911 705 40 c 2
 705 18 l 2
 705 -5.546188844 695.56734413 0 674 0 c 2
 410 0 l 2
 385.625623352 0 385 -0.519324547954 385 24 c 2
 385 42 l 2
 385 60.8448417093 381.906103729 65 402 65 c 2
 440 65 l 2
 459.951965138 65 455 73.7707946928 455 92 c 2
 455 424 l 2
 455 451.066886818 458.13697831 455 430 455 c 2
 272 455 l 2
 242.814653477 455 245 452.396973401 245 424 c 6
268 520 m 6
 436 520 l 2
 460.64300311 520 455 529.400601643 455 552 c 0
 455 573.861438137 445.692600687 567.128427089 430.000002048 572.33013914 c 0
 400.988166111 581.946852096 383 606.5750039 383 636 c 0
 383 676 411 683 411 698 c 0
 411 710 386 720 344 720 c 0
 284 720 245 657 245 530 c 0
 245 515.513974982 255.049571424 520 268 520 c 6
EndSplineSet
LCarets2: 1 0
Ligature2: "Not your mama's contextual ligatures" f f
EndChar

StartChar: uniFB01
Encoding: 64257 64257 543
Width: 680
VWidth: 1155
Flags: HMW
LayerCount: 2
Fore
SplineSet
640 0 m 6
 400 0 l 2
 379.049752037 0 380 1.10511853571 380 22 c 2
 380 46 l 2
 380 69.217449303 386.196389382 65 408 65 c 2
 432 65 l 2
 456.10692067 65 450 75.9986294183 450 98 c 2
 450 430 l 2
 450 459.506591718 443.844437809 455 416 455 c 2
 280 455 l 2
 247.727835839 455 245 457.358445693 245 424 c 2
 245 102 l 2
 245 74.8619437081 238.762592286 65 268 65 c 2
 310 65 l 2
 327.909945061 65 335 69.3426629589 335 50 c 2
 335 16 l 2
 335 -5.86886352067 323.890208085 0 304 0 c 2
 58 0 l 2
 26.7749630934 0 25 -1.51990483127 25 30 c 2
 25 48 l 2
 25 68.0185761342 29.1034619622 65 48 65 c 2
 86 65 l 2
 115.933264042 65 115 66.0911473408 115 96 c 2
 115 432 l 2
 115 450.844841709 118.093896271 455 98 455 c 2
 52 455 l 2
 32.028774477 455 25 450.5022131 25 472 c 2
 25 498 l 2
 25 524.370824538 31.1664536225 520 56 520 c 2
 82 520 l 2
 113.225036907 520 115 518.480095169 115 550 c 2
 115 572 l 2
 115 703 192 795 352 795 c 0
 483 795 560 741 560 674 c 0
 560 621 523 588 478 588 c 0
 433 588 403 618 403 656 c 0
 403 696 429 701 429 716 c 0
 429 728 396 740 354 740 c 0
 274 740 245 677 245 550 c 0
 245 517.317520331 248.23168156 520 280 520 c 2
 550 520 l 2
 577.319501872 520 580 522.275313211 580 494 c 2
 580 104 l 2
 580 77.4566931265 572.816170218 65 602 65 c 2
 646 65 l 2
 669.377330804 65 670 65.518921068 670 42 c 2
 670 12 l 2
 670 -5.84495979926 655.892159113 0 640 0 c 6
EndSplineSet
LCarets2: 1 0
Ligature2: "Not your mama's contextual ligatures" f i
EndChar

StartChar: uniFB02
Encoding: 64258 64258 544
Width: 710
VWidth: 1155
Flags: HMW
LayerCount: 2
Fore
SplineSet
676 0 m 2
 424 0 l 2
 396.931029172 0 390 -4.93561912059 390 24 c 2
 390 48 l 2
 390 71.504466799 402.666524539 65 424 65 c 2
 464 65 l 2
 485.057509799 65 480 73.7294311771 480 93 c 2
 480 576 l 2
 480 589.308603389 480.082541311 588 468 588 c 0
 423 588 393 618 393 656 c 0
 393 696 421 703 421 718 c 0
 421 730 386 740 344 740 c 0
 274 740 245 677 245 550 c 0
 245 522.085459142 243.172854745 520 272 520 c 2
 362 520 l 2
 380.844841709 520 385 523.093896271 385 503 c 2
 385 472 l 2
 385 451.24508897 379.493629943 455 360 455 c 2
 268 455 l 2
 245.619752686 455 245 455.518481206 245 433 c 2
 245 101 l 2
 245 64.5966431969 245.536195915 65 282 65 c 2
 338 65 l 2
 361.718823581 65 365 67.6406551898 365 43 c 2
 365 19 l 2
 365 -3.85823828465 359.514757899 0 338 0 c 2
 56 0 l 2
 30.262639525 0 25 -3.90214026627 25 23 c 2
 25 42 l 2
 25 67.5760511972 28.205658799 65 53 65 c 2
 89 65 l 2
 123.36004132 65 115 79.5753285534 115 111 c 2
 115 425 l 2
 115 447.275901156 119.969365659 455 96 455 c 2
 48 455 l 2
 27.6309000268 455 25 452.857215165 25 474 c 2
 25 496 l 2
 25 519.377330804 24.481078932 520 48 520 c 2
 88 520 l 2
 114.908869995 520 115 520.000230599 115 547 c 2
 115 572 l 2
 115 703 192 795 342 795 c 0
 399.862668099 795 447.190007755 784.464671557 481.999993112 766.927191195 c 0
 507.218507454 754.221951721 507.995010098 745.074236206 534 759.076923077 c 2
 572 779.538461538 l 2
 611.299198766 800.699568566 610 801.316059391 610 742 c 6
 610 105 l 2
 610 70.896600126 605.457727034 65 641 65 c 2
 681 65 l 2
 705.225357273 65 700 56.5930449273 700 34 c 0
 700 6.93102917179 704.935619121 0 676 0 c 2
EndSplineSet
LCarets2: 1 0
Ligature2: "Not your mama's contextual ligatures" f l
EndChar

StartChar: uniFB03
Encoding: 64259 64259 545
Width: 1035
VWidth: 1155
Flags: HMW
LayerCount: 2
Fore
SplineSet
998 0 m 2
 748 0 l 2
 726.051090506 0 715 -6.1751671511 715 18 c 2
 715 34 l 2
 715 59.737360475 711.097859734 65 738 65 c 2
 786 65 l 2
 814.162100196 65 805 86.9074680498 805 112 c 2
 805 438 l 2
 805 458.394195633 800.203137034 455 781 455 c 2
 622 455 l 2
 596.191201962 455 595 456.021802391 595 430 c 2
 595 106 l 2
 595 74.7725210699 588.482062278 65 622 65 c 2
 662 65 l 2
 677.674793021 65 685 69.2323733155 685 52 c 2
 685 28 l 2
 685 4.59866673026 688.442223932 0 664 0 c 2
 398 0 l 2
 372.423948803 0 375 3.20565879904 375 28 c 2
 375 52 l 2
 375 70.6475101106 387.306180323 65 404 65 c 2
 448 65 l 2
 472.999171171 65 465 83.6995427785 465 106 c 2
 465 437 l 2
 465 459.161251382 458.788070437 455 438 455 c 2
 274 455 l 2
 251.985367376 455 245 459.636883582 245 436 c 2
 245 130 l 2
 245 72.8755461391 238.657984507 65 298 65 c 2
 314 65 l 2
 332.960248488 65 345 71.029653711 345 50 c 2
 345 32 l 2
 345 11.1005687323 351.052676002 0 328 0 c 2
 48 0 l 2
 27.0147938549 0 25 -1.71510570786 25 20 c 2
 25 42 l 2
 25 62.3690999732 22.8572151652 65 44 65 c 2
 92 65 l 2
 126.635162217 65 115 95.2508906163 115 126 c 2
 115 434 l 2
 115 455.948895107 113.897008641 455 92 455 c 2
 45 455 l 2
 25.6112873354 455 25 454.483112214 25 474 c 2
 25 506 l 2
 25 518.035220339 31.4677734375 520 44 520 c 2
 100 520 l 6
 115.465450625 520 115 520.545051535 115 536 c 2
 115 552 l 2
 115 683 192 775 342 775 c 0
 396.470382234 775 439.875590958 765.663759851 471.999956719 749.938762073 c 0
 488.606932813 741.809584859 502.199143311 731.973034645 512.746792305 720.836322179 c 1
 525.311742602 735.899635842 540.384981394 748.981930919 558 759.787367413 c 0
 594.802942831 782.363095004 642.701128401 795 702 795 c 0
 833 795 910 741 910 674 c 0
 910 621 873 588 828 588 c 0
 783 588 753 618 753 656 c 0
 753 696 779 701 779 716 c 0
 779 728 746 740 704 740 c 0
 624 740 595 677 595 550 c 0
 595 524.589178806 591.498154708 520 618 520 c 2
 912 520 l 2
 934.380247314 520 935 520.518481206 935 498 c 2
 935 114 l 2
 935 84.8988460797 925.415127895 65 958 65 c 2
 1000 65 l 2
 1023.81240924 65 1025 66.0188128262 1025 42 c 2
 1025 18 l 2
 1025 -4.1612513822 1018.78807044 0 998 0 c 2
245 530 m 0
 245 516.429318232 251.641814408 520 264 520 c 2
 434 520 l 2
 458.763900117 520 465 515.536350549 465 542 c 0
 465 576.113134221 454.506093906 564.206969977 430.000002048 572.33013914 c 0
 400.988166111 581.946852096 383 606.5750039 383 636 c 0
 383 676 411 683 411 698 c 0
 411 710 386 720 344 720 c 0
 284 720 245 657 245 530 c 0
EndSplineSet
LCarets2: 2 0 0
Ligature2: "Not your mama's contextual ligatures" f f i
EndChar

StartChar: uniFB04
Encoding: 64260 64260 546
Width: 1035
VWidth: 1155
Flags: HMW
LayerCount: 2
Fore
SplineSet
998 0 m 2
 744 0 l 2
 714.574562082 0 715 0.537711545342 715 30 c 2
 715 50 l 2
 715 69.2920568468 722.036125247 65 740 65 c 2
 786 65 l 2
 812.017355248 65 805 78.3444002541 805 102 c 2
 805 558 l 0
 805 588.873173081 l 1
 790.474324427 590.873528199 777.935039979 596.222238132 768.00894464 603.999999173 c 0
 752.183097454 616.400611244 743 634.975892628 743 656 c 0
 743 696 771 703 771 718 c 0
 771 730 736 740 694 740 c 0
 624 740 595 677 595 550 c 0
 595 522.085459142 593.172854745 520 622 520 c 2
 686 520 l 2
 712.925399612 520 715 521.81189888 715 494 c 2
 715 482 l 2
 715 465.672517908 720.266118322 455 702 455 c 2
 614 455 l 2
 584.985864751 455 595 427.737037291 595 402 c 2
 595 104 l 2
 595 71.5763898021 590.114230861 65 624 65 c 2
 654 65 l 2
 676.525567315 65 685 70.2914388449 685 46 c 2
 685 18 l 2
 685 -7.57560006343 668.925650017 0 646 0 c 2
 394 0 l 2
 370.099802533 0 375 7.65804061487 375 30 c 2
 375 42 l 2
 375 68.0053880705 378.846725848 65 404 65 c 2
 446 65 l 2
 475.306882902 65 465 94.0173282063 465 120 c 2
 465 426 l 2
 465 452.328046836 467.257783734 455 440 455 c 2
 274 455 l 2
 245.097880376 455 245 454.999752319 245 426 c 2
 245 102 l 2
 245 68.9601900503 241.734793772 65 276 65 c 2
 316 65 l 2
 336.257383823 65 345 70.2299721232 345 48 c 2
 345 20 l 2
 345 -9.55576735965 322.346002931 0 296 0 c 2
 56 0 l 2
 31.2360998831 0 25 -4.46364945149 25 22 c 2
 25 50 l 2
 25 69.2920568468 32.0361252467 65 50 65 c 2
 84 65 l 2
 114.895369254 65 115 65.000264762 115 96 c 2
 115 432 l 2
 115 449.408026046 118.696191176 455 100 455 c 2
 54 455 l 2
 31.9853673763 455 25 450.363116418 25 474 c 2
 25 500 l 2
 25 522.521190061 28.2043742055 520 50 520 c 2
 84 520 l 2
 115.419198796 520 115 520.537206731 115 552 c 0
 115 683 192 775 342 775 c 0
 398.765153728 775 443.513170263 764.860540493 475.999958011 747.917539924 c 0
 523.159867246 723.32199126 507.332693673 726.714937533 549.999955292 756.131761491 c 4
 586.061914545 780.994578242 633.474458423 795 692 795 c 0
 745.545394887 795 790.068943557 785.978153783 823.999992727 770.734321548 c 0
 847.17997347 760.320504518 848.993352746 753.688728402 872 766.076923077 c 2
 904 783.307692308 l 2
 923.702536782 793.916750575 935 811.024138667 935 774 c 2
 935 108 l 2
 935 78.1294196141 927.207600057 65 960 65 c 2
 990 65 l 2
 1016.62109584 65 1025 70.5774467845 1025 42 c 2
 1025 24 l 2
 1025 -1.68380081388 1023.02111187 0 998 0 c 2
245 530 m 0
 245 513.128653487 274.747453641 520 290 520 c 2
 438 520 l 2
 464.36837253 520 465 519.479961256 465 546 c 2
 465 568.269654829 l 1
 462.691384752 568.090507353 460.356662964 568 458 568 c 0
 413 568 383 598 383 636 c 0
 383 676 411 683 411 698 c 0
 411 710 386 720 344 720 c 0
 284 720 245 657 245 530 c 0
EndSplineSet
LCarets2: 2 0 0
Ligature2: "Not your mama's contextual ligatures" f f l
EndChar

StartChar: uniFFFD
Encoding: 65533 65533 547
Width: 815
Flags: HMW
LayerCount: 2
Fore
SplineSet
754 0 m 2
 700 0 l 2
 467.03125 0 641.256835938 335 405 335 c 2
 326 335 l 2
 292.616446553 335 285 340.615383849 285 305 c 2
 285 111 l 2
 285 76.7789882549 283.474313254 75 318 75 c 2
 372 75 l 2
 388.636147761 75 395 78.9488593432 395 61 c 2
 395 25 l 2
 395 -3.04463731251 391.155321127 0 364 0 c 2
 68 0 l 2
 42.0639475979 0 40 -1.79644626973 40 25 c 2
 40 55 l 2
 40 79.6236126469 46.9021439584 75 70 75 c 2
 106 75 l 2
 151.894737072 75 150 77.2021042804 150 123 c 2
 150 631 l 2
 150 660.265212659 158.233556201 675 126 675 c 2
 80 675 l 2
 51.3440879018 675 40 668.051739266 40 699 c 2
 40 735 l 2
 40 757.397391714 58.0657494609 750 78 750 c 6
 455 750 l 2
 646 750 725 670 725 560 c 0
 725 469.202552436 684.801122928 394.75719046 552.100463404 371.532518168 c 1
 758.603096403 319.939317619 645.105420284 74.9999994251 746 75 c 2
 768 75 l 2
 792.946474692 75 795 76.7807636347 795 51 c 2
 795 23 l 2
 795 -7.48175043938 781.865585117 0 754 0 c 2
330 415 m 2
 455 415 l 2
 521 415 585 451 585 560 c 0
 585 649 521 675 455 675 c 2
 312 675 l 2
 280.66689745 675 285 669.191479601 285 639 c 2
 285 465 l 2
 285 418.475765236 281.954757908 415 330 415 c 2
EndSplineSet
EndChar
